<svg width="85" height="85" viewBox="0 0 85 85" fill="none" xmlns="http://www.w3.org/2000/svg">
<mask id="mask0_424_5626" style="mask-type:luminance" maskUnits="userSpaceOnUse" x="19" y="32" width="3" height="5">
<path d="M19.5605 32.9579H21.743V36.9306H19.5605V32.9579Z" fill="white"/>
</mask>
<g mask="url(#mask0_424_5626)">
<mask id="mask1_424_5626" style="mask-type:luminance" maskUnits="userSpaceOnUse" x="19" y="32" width="3" height="5">
<path d="M20.6516 32.9579C20.9412 32.9579 21.2186 33.0728 21.4234 33.2775C21.6279 33.482 21.743 33.7597 21.743 34.049V35.8314C21.743 36.121 21.6279 36.3984 21.4234 36.6031C21.2186 36.8077 20.9412 36.9227 20.6516 36.9227C20.3623 36.9227 20.0849 36.8077 19.8801 36.6031C19.6756 36.3984 19.5605 36.121 19.5605 35.8314V34.049C19.5605 33.7597 19.6756 33.482 19.8801 33.2775C20.0849 33.0728 20.3623 32.9579 20.6516 32.9579Z" fill="white"/>
</mask>
<g mask="url(#mask1_424_5626)">
<mask id="mask2_424_5626" style="mask-type:luminance" maskUnits="userSpaceOnUse" x="19" y="32" width="3" height="5">
<path d="M21.7665 32.9188H19.5234V36.9327H21.7665V32.9188Z" fill="white"/>
</mask>
<g mask="url(#mask2_424_5626)">
<mask id="mask3_424_5626" style="mask-type:luminance" maskUnits="userSpaceOnUse" x="19" y="32" width="3" height="5">
<path d="M19.5605 32.9579H21.743V36.9232H19.5605V32.9579Z" fill="white"/>
</mask>
<g mask="url(#mask3_424_5626)">
<mask id="mask4_424_5626" style="mask-type:luminance" maskUnits="userSpaceOnUse" x="19" y="32" width="3" height="5">
<path d="M20.6516 32.9579C20.9412 32.9579 21.2186 33.0728 21.4234 33.2775C21.6279 33.482 21.743 33.7597 21.743 34.049V35.8314C21.743 36.121 21.6279 36.3984 21.4234 36.6031C21.2186 36.8077 20.9412 36.9227 20.6516 36.9227C20.3623 36.9227 20.0849 36.8077 19.8801 36.6031C19.6756 36.3984 19.5605 36.121 19.5605 35.8314V34.049C19.5605 33.7597 19.6756 33.482 19.8801 33.2775C20.0849 33.0728 20.3623 32.9579 20.6516 32.9579Z" fill="white"/>
</mask>
<g mask="url(#mask4_424_5626)">
<path d="M19.5605 32.9579H21.743V36.922H19.5605V32.9579Z" fill="#3D12EA"/>
</g>
</g>
</g>
</g>
</g>
<mask id="mask5_424_5626" style="mask-type:luminance" maskUnits="userSpaceOnUse" x="23" y="29" width="3" height="8">
<path d="M23.4688 29.9366H25.6512V36.9271H23.4688V29.9366Z" fill="white"/>
</mask>
<g mask="url(#mask5_424_5626)">
<mask id="mask6_424_5626" style="mask-type:luminance" maskUnits="userSpaceOnUse" x="23" y="29" width="3" height="8">
<path d="M24.5598 29.9366C24.8492 29.9366 25.1268 30.0515 25.3316 30.2562C25.5361 30.4607 25.6512 30.7384 25.6512 31.0277V35.8316C25.6512 36.1212 25.5361 36.3986 25.3316 36.6033C25.1268 36.8078 24.8492 36.9229 24.5598 36.9229C24.2705 36.9229 23.9929 36.8078 23.7883 36.6033C23.5836 36.3986 23.4688 36.1212 23.4688 35.8316V31.0277C23.4688 30.7384 23.5836 30.4607 23.7883 30.2562C23.9929 30.0515 24.2705 29.9366 24.5598 29.9366Z" fill="white"/>
</mask>
<g mask="url(#mask6_424_5626)">
<mask id="mask7_424_5626" style="mask-type:luminance" maskUnits="userSpaceOnUse" x="23" y="29" width="3" height="8">
<path d="M25.661 29.9085H23.418V36.9328H25.661V29.9085Z" fill="white"/>
</mask>
<g mask="url(#mask7_424_5626)">
<mask id="mask8_424_5626" style="mask-type:luminance" maskUnits="userSpaceOnUse" x="23" y="29" width="3" height="8">
<path d="M23.4688 29.9366H25.6512V36.9234H23.4688V29.9366Z" fill="white"/>
</mask>
<g mask="url(#mask8_424_5626)">
<mask id="mask9_424_5626" style="mask-type:luminance" maskUnits="userSpaceOnUse" x="23" y="29" width="3" height="8">
<path d="M24.5598 29.9366C24.8492 29.9366 25.1268 30.0515 25.3316 30.2562C25.5361 30.4607 25.6512 30.7384 25.6512 31.0277V35.8316C25.6512 36.1212 25.5361 36.3986 25.3316 36.6033C25.1268 36.8078 24.8492 36.9229 24.5598 36.9229C24.2705 36.9229 23.9929 36.8078 23.7883 36.6033C23.5836 36.3986 23.4688 36.1212 23.4688 35.8316V31.0277C23.4688 30.7384 23.5836 30.4607 23.7883 30.2562C23.9929 30.0515 24.2705 29.9366 24.5598 29.9366Z" fill="white"/>
</mask>
<g mask="url(#mask9_424_5626)">
<path d="M23.4688 29.9366H25.6512V36.9271H23.4688V29.9366Z" fill="#00C8B3"/>
</g>
</g>
</g>
</g>
</g>
<mask id="mask10_424_5626" style="mask-type:luminance" maskUnits="userSpaceOnUse" x="27" y="26" width="3" height="11">
<path d="M27.6113 26.5031H29.7937V36.9289H27.6113V26.5031Z" fill="white"/>
</mask>
<g mask="url(#mask10_424_5626)">
<mask id="mask11_424_5626" style="mask-type:luminance" maskUnits="userSpaceOnUse" x="27" y="26" width="3" height="11">
<path d="M28.7024 26.5031C28.9918 26.5031 29.2694 26.6179 29.4742 26.8227C29.6787 27.0272 29.7937 27.3048 29.7937 27.5942V35.8316C29.7937 36.1212 29.6787 36.3986 29.4742 36.6033C29.2694 36.8078 28.9918 36.9229 28.7024 36.9229C28.413 36.9229 28.1354 36.8078 27.9309 36.6033C27.7262 36.3986 27.6113 36.1212 27.6113 35.8316V27.5942C27.6113 27.3048 27.7262 27.0272 27.9309 26.8227C28.1354 26.6179 28.413 26.5031 28.7024 26.5031Z" fill="white"/>
</mask>
<g mask="url(#mask11_424_5626)">
<mask id="mask12_424_5626" style="mask-type:luminance" maskUnits="userSpaceOnUse" x="27" y="26" width="3" height="11">
<path d="M29.8524 26.4849H27.6094V36.9328H29.8524V26.4849Z" fill="white"/>
</mask>
<g mask="url(#mask12_424_5626)">
<mask id="mask13_424_5626" style="mask-type:luminance" maskUnits="userSpaceOnUse" x="27" y="26" width="3" height="11">
<path d="M27.6113 26.5031H29.7937V36.9234H27.6113V26.5031Z" fill="white"/>
</mask>
<g mask="url(#mask13_424_5626)">
<mask id="mask14_424_5626" style="mask-type:luminance" maskUnits="userSpaceOnUse" x="27" y="26" width="3" height="11">
<path d="M28.7024 26.5031C28.9918 26.5031 29.2694 26.6179 29.4742 26.8227C29.6787 27.0272 29.7937 27.3048 29.7937 27.5942V35.8316C29.7937 36.1212 29.6787 36.3986 29.4742 36.6033C29.2694 36.8078 28.9918 36.9229 28.7024 36.9229C28.413 36.9229 28.1354 36.8078 27.9309 36.6033C27.7262 36.3986 27.6113 36.1212 27.6113 35.8316V27.5942C27.6113 27.3048 27.7262 27.0272 27.9309 26.8227C28.1354 26.6179 28.413 26.5031 28.7024 26.5031Z" fill="white"/>
</mask>
<g mask="url(#mask14_424_5626)">
<path d="M27.6113 26.5031H29.7937V36.9204H27.6113V26.5031Z" fill="#0C84C0"/>
</g>
</g>
</g>
</g>
</g>
<mask id="mask15_424_5626" style="mask-type:luminance" maskUnits="userSpaceOnUse" x="31" y="30" width="3" height="7">
<path d="M31.5215 30.5132H33.7039V36.9239H31.5215V30.5132Z" fill="white"/>
</mask>
<g mask="url(#mask15_424_5626)">
<mask id="mask16_424_5626" style="mask-type:luminance" maskUnits="userSpaceOnUse" x="31" y="30" width="3" height="7">
<path d="M32.6126 30.5132C32.902 30.5132 33.1796 30.6282 33.3841 30.8328C33.5888 31.0375 33.7039 31.3151 33.7039 31.6045V35.8314C33.7039 36.1211 33.5888 36.3984 33.3841 36.6032C33.1796 36.8077 32.902 36.9228 32.6126 36.9228C32.3232 36.9228 32.0456 36.8077 31.8411 36.6032C31.6363 36.3984 31.5215 36.1211 31.5215 35.8314V31.6045C31.5215 31.3151 31.6363 31.0375 31.8411 30.8328C32.0456 30.6282 32.3232 30.5132 32.6126 30.5132Z" fill="white"/>
</mask>
<g mask="url(#mask16_424_5626)">
<mask id="mask17_424_5626" style="mask-type:luminance" maskUnits="userSpaceOnUse" x="31" y="30" width="3" height="7">
<path d="M33.7489 30.4987H31.5059V36.9327H33.7489V30.4987Z" fill="white"/>
</mask>
<g mask="url(#mask17_424_5626)">
<mask id="mask18_424_5626" style="mask-type:luminance" maskUnits="userSpaceOnUse" x="31" y="30" width="3" height="7">
<path d="M31.5215 30.5132H33.7039V36.9232H31.5215V30.5132Z" fill="white"/>
</mask>
<g mask="url(#mask18_424_5626)">
<mask id="mask19_424_5626" style="mask-type:luminance" maskUnits="userSpaceOnUse" x="31" y="30" width="3" height="7">
<path d="M32.6126 30.5132C32.902 30.5132 33.1796 30.6282 33.3841 30.8328C33.5888 31.0375 33.7039 31.3151 33.7039 31.6045V35.8314C33.7039 36.1211 33.5888 36.3984 33.3841 36.6032C33.1796 36.8077 32.902 36.9228 32.6126 36.9228C32.3232 36.9228 32.0456 36.8077 31.8411 36.6032C31.6363 36.3984 31.5215 36.1211 31.5215 35.8314V31.6045C31.5215 31.3151 31.6363 31.0375 31.8411 30.8328C32.0456 30.6282 32.3232 30.5132 32.6126 30.5132Z" fill="white"/>
</mask>
<g mask="url(#mask19_424_5626)">
<path d="M31.5215 30.5132H33.7039V36.9239H31.5215V30.5132Z" fill="#0088FF"/>
</g>
</g>
</g>
</g>
</g>
<mask id="mask20_424_5626" style="mask-type:luminance" maskUnits="userSpaceOnUse" x="38" y="21" width="3" height="16">
<path d="M38.4551 21.5035H40.6375V36.9252H38.4551V21.5035Z" fill="white"/>
</mask>
<g mask="url(#mask20_424_5626)">
<mask id="mask21_424_5626" style="mask-type:luminance" maskUnits="userSpaceOnUse" x="38" y="21" width="3" height="16">
<path d="M39.5464 21.5035C39.8358 21.5035 40.1134 21.6186 40.3179 21.8231C40.5227 22.0279 40.6375 22.3053 40.6375 22.5949V35.8314C40.6375 36.121 40.5227 36.3984 40.3179 36.6031C40.1134 36.8076 39.8358 36.9227 39.5464 36.9227C39.257 36.9227 38.9794 36.8076 38.7747 36.6031C38.5701 36.3984 38.4551 36.121 38.4551 35.8314V22.5949C38.4551 22.3053 38.5701 22.0279 38.7747 21.8231C38.9794 21.6186 39.257 21.5035 39.5464 21.5035Z" fill="white"/>
</mask>
<g mask="url(#mask21_424_5626)">
<mask id="mask22_424_5626" style="mask-type:luminance" maskUnits="userSpaceOnUse" x="38" y="21" width="3" height="16">
<path d="M40.6552 21.4673H38.4121V36.9326H40.6552V21.4673Z" fill="white"/>
</mask>
<g mask="url(#mask22_424_5626)">
<mask id="mask23_424_5626" style="mask-type:luminance" maskUnits="userSpaceOnUse" x="38" y="21" width="3" height="16">
<path d="M38.4551 21.5035H40.6375V36.9232H38.4551V21.5035Z" fill="white"/>
</mask>
<g mask="url(#mask23_424_5626)">
<mask id="mask24_424_5626" style="mask-type:luminance" maskUnits="userSpaceOnUse" x="38" y="21" width="3" height="16">
<path d="M39.5464 21.5035C39.8358 21.5035 40.1134 21.6186 40.3179 21.8231C40.5227 22.0279 40.6375 22.3053 40.6375 22.5949V35.8314C40.6375 36.121 40.5227 36.3984 40.3179 36.6031C40.1134 36.8076 39.8358 36.9227 39.5464 36.9227C39.257 36.9227 38.9794 36.8076 38.7747 36.6031C38.5701 36.3984 38.4551 36.121 38.4551 35.8314V22.5949C38.4551 22.3053 38.5701 22.0279 38.7747 21.8231C38.9794 21.6186 39.257 21.5035 39.5464 21.5035Z" fill="white"/>
</mask>
<g mask="url(#mask24_424_5626)">
<path d="M38.4551 21.5035H40.6375V36.9252H38.4551V21.5035Z" fill="#6155F5"/>
</g>
</g>
</g>
</g>
</g>
<mask id="mask25_424_5626" style="mask-type:luminance" maskUnits="userSpaceOnUse" x="42" y="18" width="3" height="20">
<path d="M42.5859 18.5312H44.7684V37.1411H42.5859V18.5312Z" fill="white"/>
</mask>
<g mask="url(#mask25_424_5626)">
<mask id="mask26_424_5626" style="mask-type:luminance" maskUnits="userSpaceOnUse" x="42" y="18" width="3" height="20">
<path d="M43.6773 18.5312C43.9666 18.5312 44.244 18.6461 44.4488 18.8508C44.6533 19.0554 44.7684 19.333 44.7684 19.6223V36.0454C44.7684 36.3348 44.6533 36.6124 44.4488 36.8169C44.244 37.0217 43.9666 37.1368 43.6773 37.1368C43.3879 37.1368 43.1103 37.0217 42.9055 36.8169C42.701 36.6124 42.5859 36.3348 42.5859 36.0454V19.6223C42.5859 19.333 42.701 19.0554 42.9055 18.8508C43.1103 18.6461 43.3879 18.5312 43.6773 18.5312Z" fill="white"/>
</mask>
<g mask="url(#mask26_424_5626)">
<mask id="mask27_424_5626" style="mask-type:luminance" maskUnits="userSpaceOnUse" x="42" y="18" width="3" height="20">
<path d="M44.786 18.5161H42.543V37.1688H44.786V18.5161Z" fill="white"/>
</mask>
<g mask="url(#mask27_424_5626)">
<mask id="mask28_424_5626" style="mask-type:luminance" maskUnits="userSpaceOnUse" x="42" y="18" width="3" height="20">
<path d="M42.5859 18.5312H44.7684V37.1411H42.5859V18.5312Z" fill="white"/>
</mask>
<g mask="url(#mask28_424_5626)">
<mask id="mask29_424_5626" style="mask-type:luminance" maskUnits="userSpaceOnUse" x="42" y="18" width="3" height="20">
<path d="M43.6773 18.5312C43.9666 18.5312 44.244 18.6461 44.4488 18.8508C44.6533 19.0554 44.7684 19.333 44.7684 19.6223V36.0454C44.7684 36.3348 44.6533 36.6124 44.4488 36.8169C44.244 37.0217 43.9666 37.1368 43.6773 37.1368C43.3879 37.1368 43.1103 37.0217 42.9055 36.8169C42.701 36.6124 42.5859 36.3348 42.5859 36.0454V19.6223C42.5859 19.333 42.701 19.0554 42.9055 18.8508C43.1103 18.6461 43.3879 18.5312 43.6773 18.5312Z" fill="white"/>
</mask>
<g mask="url(#mask29_424_5626)">
<path d="M42.5859 18.5312H44.7684V37.1326H42.5859V18.5312Z" fill="#00C8B3"/>
</g>
</g>
</g>
</g>
</g>
<mask id="mask30_424_5626" style="mask-type:luminance" maskUnits="userSpaceOnUse" x="46" y="22" width="3" height="16">
<path d="M46.7168 22.9261H48.8992V37.1373H46.7168V22.9261Z" fill="white"/>
</mask>
<g mask="url(#mask30_424_5626)">
<mask id="mask31_424_5626" style="mask-type:luminance" maskUnits="userSpaceOnUse" x="46" y="22" width="3" height="16">
<path d="M47.8079 22.9261C48.0975 22.9261 48.3749 23.0412 48.5796 23.246C48.7842 23.4505 48.8992 23.7281 48.8992 24.0175V36.0455C48.8992 36.3349 48.7842 36.6125 48.5796 36.817C48.3749 37.0218 48.0975 37.1369 47.8079 37.1369C47.5185 37.1369 47.2411 37.0218 47.0364 36.817C46.8319 36.6125 46.7168 36.3349 46.7168 36.0455V24.0175C46.7168 23.7281 46.8319 23.4505 47.0364 23.246C47.2411 23.0412 47.5185 22.9261 47.8079 22.9261Z" fill="white"/>
</mask>
<g mask="url(#mask31_424_5626)">
<mask id="mask32_424_5626" style="mask-type:luminance" maskUnits="userSpaceOnUse" x="46" y="22" width="3" height="16">
<path d="M48.9188 22.8842H46.6758V37.1689H48.9188V22.8842Z" fill="white"/>
</mask>
<g mask="url(#mask32_424_5626)">
<mask id="mask33_424_5626" style="mask-type:luminance" maskUnits="userSpaceOnUse" x="46" y="22" width="3" height="16">
<path d="M46.7168 22.9261H48.8992V37.1373H46.7168V22.9261Z" fill="white"/>
</mask>
<g mask="url(#mask33_424_5626)">
<mask id="mask34_424_5626" style="mask-type:luminance" maskUnits="userSpaceOnUse" x="46" y="22" width="3" height="16">
<path d="M47.8079 22.9261C48.0975 22.9261 48.3749 23.0412 48.5796 23.246C48.7842 23.4505 48.8992 23.7281 48.8992 24.0175V36.0455C48.8992 36.3349 48.7842 36.6125 48.5796 36.817C48.3749 37.0218 48.0975 37.1369 47.8079 37.1369C47.5185 37.1369 47.2411 37.0218 47.0364 36.817C46.8319 36.6125 46.7168 36.3349 46.7168 36.0455V24.0175C46.7168 23.7281 46.8319 23.4505 47.0364 23.246C47.2411 23.0412 47.5185 22.9261 47.8079 22.9261Z" fill="white"/>
</mask>
<g mask="url(#mask34_424_5626)">
<path d="M46.7168 22.9261H48.8992V37.1373H46.7168V22.9261Z" fill="#00C8B3"/>
</g>
</g>
</g>
</g>
</g>
<mask id="mask35_424_5626" style="mask-type:luminance" maskUnits="userSpaceOnUse" x="52" y="16" width="3" height="22">
<path d="M52.2773 16.0042H54.4598V37.1375H52.2773V16.0042Z" fill="white"/>
</mask>
<g mask="url(#mask35_424_5626)">
<mask id="mask36_424_5626" style="mask-type:luminance" maskUnits="userSpaceOnUse" x="52" y="16" width="3" height="22">
<path d="M53.3687 16.0042C53.658 16.0042 53.9357 16.1193 54.1402 16.3238C54.3449 16.5285 54.4598 16.8059 54.4598 17.0953V36.0455C54.4598 36.3349 54.3449 36.6125 54.1402 36.817C53.9357 37.0218 53.658 37.1368 53.3687 37.1368C53.0793 37.1368 52.8017 37.0218 52.5969 36.817C52.3924 36.6125 52.2773 36.3349 52.2773 36.0455V17.0953C52.2773 16.8059 52.3924 16.5285 52.5969 16.3238C52.8017 16.1193 53.0793 16.0042 53.3687 16.0042Z" fill="white"/>
</mask>
<g mask="url(#mask36_424_5626)">
<mask id="mask37_424_5626" style="mask-type:luminance" maskUnits="userSpaceOnUse" x="52" y="15" width="3" height="23">
<path d="M54.4677 15.9779H52.2246V37.1689H54.4677V15.9779Z" fill="white"/>
</mask>
<g mask="url(#mask37_424_5626)">
<mask id="mask38_424_5626" style="mask-type:luminance" maskUnits="userSpaceOnUse" x="52" y="16" width="3" height="22">
<path d="M52.2773 16.0042H54.4598V37.1375H52.2773V16.0042Z" fill="white"/>
</mask>
<g mask="url(#mask38_424_5626)">
<mask id="mask39_424_5626" style="mask-type:luminance" maskUnits="userSpaceOnUse" x="52" y="16" width="3" height="22">
<path d="M53.3687 16.0042C53.658 16.0042 53.9357 16.1193 54.1402 16.3238C54.3449 16.5285 54.4598 16.8059 54.4598 17.0953V36.0455C54.4598 36.3349 54.3449 36.6125 54.1402 36.817C53.9357 37.0218 53.658 37.1368 53.3687 37.1368C53.0793 37.1368 52.8017 37.0218 52.5969 36.817C52.3924 36.6125 52.2773 36.3349 52.2773 36.0455V17.0953C52.2773 16.8059 52.3924 16.5285 52.5969 16.3238C52.8017 16.1193 53.0793 16.0042 53.3687 16.0042Z" fill="white"/>
</mask>
<g mask="url(#mask39_424_5626)">
<path d="M52.2773 16.0042H54.4598V37.1375H52.2773V16.0042Z" fill="#1261EA"/>
</g>
</g>
</g>
</g>
</g>
<mask id="mask40_424_5626" style="mask-type:luminance" maskUnits="userSpaceOnUse" x="56" y="21" width="3" height="17">
<path d="M56.4062 21.5035H58.5887V37.1383H56.4062V21.5035Z" fill="white"/>
</mask>
<g mask="url(#mask40_424_5626)">
<mask id="mask41_424_5626" style="mask-type:luminance" maskUnits="userSpaceOnUse" x="56" y="21" width="3" height="17">
<path d="M57.4976 21.5035C57.7869 21.5035 58.0643 21.6186 58.2691 21.8231C58.4736 22.0279 58.5887 22.3053 58.5887 22.5949V36.0454C58.5887 36.3347 58.4736 36.6123 58.2691 36.8169C58.0643 37.0216 57.7869 37.1367 57.4976 37.1367C57.208 37.1367 56.9306 37.0216 56.7258 36.8169C56.5213 36.6123 56.4062 36.3347 56.4062 36.0454V22.5949C56.4062 22.3053 56.5213 22.0279 56.7258 21.8231C56.9306 21.6186 57.208 21.5035 57.4976 21.5035Z" fill="white"/>
</mask>
<g mask="url(#mask41_424_5626)">
<mask id="mask42_424_5626" style="mask-type:luminance" maskUnits="userSpaceOnUse" x="56" y="21" width="3" height="17">
<path d="M58.5985 21.4673H56.3555V37.1687H58.5985V21.4673Z" fill="white"/>
</mask>
<g mask="url(#mask42_424_5626)">
<mask id="mask43_424_5626" style="mask-type:luminance" maskUnits="userSpaceOnUse" x="56" y="21" width="3" height="17">
<path d="M56.4062 21.5035H58.5887V37.1383H56.4062V21.5035Z" fill="white"/>
</mask>
<g mask="url(#mask43_424_5626)">
<mask id="mask44_424_5626" style="mask-type:luminance" maskUnits="userSpaceOnUse" x="56" y="21" width="3" height="17">
<path d="M57.4976 21.5035C57.7869 21.5035 58.0643 21.6186 58.2691 21.8231C58.4736 22.0279 58.5887 22.3053 58.5887 22.5949V36.0454C58.5887 36.3347 58.4736 36.6123 58.2691 36.8169C58.0643 37.0216 57.7869 37.1367 57.4976 37.1367C57.208 37.1367 56.9306 37.0216 56.7258 36.8169C56.5213 36.6123 56.4062 36.3347 56.4062 36.0454V22.5949C56.4062 22.3053 56.5213 22.0279 56.7258 21.8231C56.9306 21.6186 57.208 21.5035 57.4976 21.5035Z" fill="white"/>
</mask>
<g mask="url(#mask44_424_5626)">
<path d="M56.4062 21.5035H58.5887V37.1383H56.4062V21.5035Z" fill="#7712EA"/>
</g>
</g>
</g>
</g>
</g>
<mask id="mask45_424_5626" style="mask-type:luminance" maskUnits="userSpaceOnUse" x="60" y="27" width="3" height="11">
<path d="M60.5371 27.3759H62.7195V37.1369H60.5371V27.3759Z" fill="white"/>
</mask>
<g mask="url(#mask45_424_5626)">
<mask id="mask46_424_5626" style="mask-type:luminance" maskUnits="userSpaceOnUse" x="60" y="27" width="3" height="11">
<path d="M61.6282 27.3759C61.9178 27.3759 62.1952 27.491 62.3999 27.6955C62.6045 27.9002 62.7195 28.1779 62.7195 28.4672V36.0454C62.7195 36.3348 62.6045 36.6124 62.3999 36.8169C62.1952 37.0217 61.9178 37.1367 61.6282 37.1367C61.3388 37.1367 61.0614 37.0217 60.8567 36.8169C60.6522 36.6124 60.5371 36.3348 60.5371 36.0454V28.4672C60.5371 28.1779 60.6522 27.9002 60.8567 27.6955C61.0614 27.491 61.3388 27.3759 61.6282 27.3759Z" fill="white"/>
</mask>
<g mask="url(#mask46_424_5626)">
<mask id="mask47_424_5626" style="mask-type:luminance" maskUnits="userSpaceOnUse" x="60" y="27" width="3" height="11">
<path d="M62.7313 27.3702H60.4883V37.1688H62.7313V27.3702Z" fill="white"/>
</mask>
<g mask="url(#mask47_424_5626)">
<mask id="mask48_424_5626" style="mask-type:luminance" maskUnits="userSpaceOnUse" x="60" y="27" width="3" height="11">
<path d="M60.5371 27.3759H62.7195V37.1369H60.5371V27.3759Z" fill="white"/>
</mask>
<g mask="url(#mask48_424_5626)">
<mask id="mask49_424_5626" style="mask-type:luminance" maskUnits="userSpaceOnUse" x="60" y="27" width="3" height="11">
<path d="M61.6282 27.3759C61.9178 27.3759 62.1952 27.491 62.3999 27.6955C62.6045 27.9002 62.7195 28.1779 62.7195 28.4672V36.0454C62.7195 36.3348 62.6045 36.6124 62.3999 36.8169C62.1952 37.0217 61.9178 37.1367 61.6282 37.1367C61.3388 37.1367 61.0614 37.0217 60.8567 36.8169C60.6522 36.6124 60.5371 36.3348 60.5371 36.0454V28.4672C60.5371 28.1779 60.6522 27.9002 60.8567 27.6955C61.0614 27.491 61.3388 27.3759 61.6282 27.3759Z" fill="white"/>
</mask>
<g mask="url(#mask49_424_5626)">
<path d="M60.5371 27.3759H62.7195V37.1369H60.5371V27.3759Z" fill="#12ADEA"/>
</g>
</g>
</g>
</g>
</g>
<mask id="mask50_424_5626" style="mask-type:luminance" maskUnits="userSpaceOnUse" x="21" y="48" width="3" height="8">
<path d="M21.3398 48.7239H23.7129V55.4756H21.3398V48.7239Z" fill="white"/>
</mask>
<g mask="url(#mask50_424_5626)">
<mask id="mask51_424_5626" style="mask-type:luminance" maskUnits="userSpaceOnUse" x="21" y="48" width="3" height="8">
<path d="M22.5262 48.7239C22.8409 48.7239 23.1427 48.8387 23.3654 49.0435C23.5878 49.248 23.7129 49.5256 23.7129 49.815V54.3836C23.7129 54.673 23.5878 54.9506 23.3654 55.1551C23.1427 55.3599 22.8409 55.4747 22.5262 55.4747C22.2116 55.4747 21.9097 55.3599 21.6873 55.1551C21.4647 54.9506 21.3398 54.673 21.3398 54.3836V49.815C21.3398 49.5256 21.4647 49.248 21.6873 49.0435C21.9097 48.8387 22.2116 48.7239 22.5262 48.7239Z" fill="white"/>
</mask>
<g mask="url(#mask51_424_5626)">
<mask id="mask52_424_5626" style="mask-type:luminance" maskUnits="userSpaceOnUse" x="21" y="48" width="3" height="8">
<path d="M23.7241 48.7056H21.2852V55.4938H23.7241V48.7056Z" fill="white"/>
</mask>
<g mask="url(#mask52_424_5626)">
<mask id="mask53_424_5626" style="mask-type:luminance" maskUnits="userSpaceOnUse" x="21" y="48" width="3" height="8">
<path d="M21.3398 48.7238H23.7129V55.4749H21.3398V48.7238Z" fill="white"/>
</mask>
<g mask="url(#mask53_424_5626)">
<mask id="mask54_424_5626" style="mask-type:luminance" maskUnits="userSpaceOnUse" x="21" y="48" width="3" height="8">
<path d="M22.5262 48.7238C22.8409 48.7238 23.1427 48.8386 23.3654 49.0434C23.5878 49.2479 23.7129 49.5255 23.7129 49.8149V54.3836C23.7129 54.6729 23.5878 54.9506 23.3654 55.1551C23.1427 55.3598 22.8409 55.4747 22.5262 55.4747C22.2116 55.4747 21.9097 55.3598 21.6873 55.1551C21.4647 54.9506 21.3398 54.6729 21.3398 54.3836V49.8149C21.3398 49.5255 21.4647 49.2479 21.6873 49.0434C21.9097 48.8386 22.2116 48.7238 22.5262 48.7238Z" fill="white"/>
</mask>
<g mask="url(#mask54_424_5626)">
<path d="M21.3398 48.7238H23.7129V55.4756H21.3398V48.7238Z" fill="#0C84C0"/>
</g>
</g>
</g>
</g>
</g>
<mask id="mask55_424_5626" style="mask-type:luminance" maskUnits="userSpaceOnUse" x="25" y="48" width="4" height="12">
<path d="M25.8438 48.7239H28.2168V59.38H25.8438V48.7239Z" fill="white"/>
</mask>
<g mask="url(#mask55_424_5626)">
<mask id="mask56_424_5626" style="mask-type:luminance" maskUnits="userSpaceOnUse" x="25" y="48" width="4" height="12">
<path d="M27.0301 48.7239C27.3448 48.7239 27.6466 48.8387 27.8693 49.0435C28.0917 49.248 28.2168 49.5256 28.2168 49.815V58.2843C28.2168 58.5737 28.0917 58.8513 27.8693 59.0558C27.6466 59.2606 27.3448 59.3754 27.0301 59.3754C26.7155 59.3754 26.4136 59.2606 26.1912 59.0558C25.9686 58.8513 25.8438 58.5737 25.8438 58.2843V49.815C25.8438 49.5256 25.9686 49.248 26.1912 49.0435C26.4136 48.8387 26.7155 48.7239 27.0301 48.7239Z" fill="white"/>
</mask>
<g mask="url(#mask56_424_5626)">
<mask id="mask57_424_5626" style="mask-type:luminance" maskUnits="userSpaceOnUse" x="25" y="48" width="4" height="12">
<path d="M28.2808 48.7056H25.8418V59.3897H28.2808V48.7056Z" fill="white"/>
</mask>
<g mask="url(#mask57_424_5626)">
<mask id="mask58_424_5626" style="mask-type:luminance" maskUnits="userSpaceOnUse" x="25" y="48" width="4" height="12">
<path d="M25.8438 48.7239H28.2168V59.38H25.8438V48.7239Z" fill="white"/>
</mask>
<g mask="url(#mask58_424_5626)">
<mask id="mask59_424_5626" style="mask-type:luminance" maskUnits="userSpaceOnUse" x="25" y="48" width="4" height="12">
<path d="M27.0301 48.7239C27.3448 48.7239 27.6466 48.8387 27.8693 49.0435C28.0917 49.248 28.2168 49.5256 28.2168 49.815V58.2843C28.2168 58.5737 28.0917 58.8513 27.8693 59.0558C27.6466 59.2606 27.3448 59.3754 27.0301 59.3754C26.7155 59.3754 26.4136 59.2606 26.1912 59.0558C25.9686 58.8513 25.8438 58.5737 25.8438 58.2843V49.815C25.8438 49.5256 25.9686 49.248 26.1912 49.0435C26.4136 48.8387 26.7155 48.7239 27.0301 48.7239Z" fill="white"/>
</mask>
<g mask="url(#mask59_424_5626)">
<path d="M25.8438 48.7239H28.2168V59.3715H25.8438V48.7239Z" fill="#00C8B3"/>
</g>
</g>
</g>
</g>
</g>
<mask id="mask60_424_5626" style="mask-type:luminance" maskUnits="userSpaceOnUse" x="30" y="48" width="3" height="8">
<path d="M30.334 48.7239H32.707V55.8167H30.334V48.7239Z" fill="white"/>
</mask>
<g mask="url(#mask60_424_5626)">
<mask id="mask61_424_5626" style="mask-type:luminance" maskUnits="userSpaceOnUse" x="30" y="48" width="3" height="8">
<path d="M31.5204 48.7239C31.835 48.7239 32.1369 48.8387 32.3593 49.0435C32.5819 49.248 32.707 49.5256 32.707 49.815V54.718C32.707 55.0073 32.5819 55.285 32.3593 55.4895C32.1369 55.6942 31.835 55.8093 31.5204 55.8093C31.2057 55.8093 30.9039 55.6942 30.6815 55.4895C30.4588 55.285 30.334 55.0073 30.334 54.718V49.815C30.334 49.5256 30.4588 49.248 30.6815 49.0435C30.9039 48.8387 31.2057 48.7239 31.5204 48.7239Z" fill="white"/>
</mask>
<g mask="url(#mask61_424_5626)">
<mask id="mask62_424_5626" style="mask-type:luminance" maskUnits="userSpaceOnUse" x="30" y="48" width="3" height="8">
<path d="M32.7088 48.7057H30.334V55.8481H32.7088V48.7057Z" fill="white"/>
</mask>
<g mask="url(#mask62_424_5626)">
<mask id="mask63_424_5626" style="mask-type:luminance" maskUnits="userSpaceOnUse" x="30" y="48" width="3" height="8">
<path d="M30.334 48.7239H32.707V55.8151H30.334V48.7239Z" fill="white"/>
</mask>
<g mask="url(#mask63_424_5626)">
<mask id="mask64_424_5626" style="mask-type:luminance" maskUnits="userSpaceOnUse" x="30" y="48" width="3" height="8">
<path d="M31.5204 48.7239C31.835 48.7239 32.1369 48.8388 32.3593 49.0435C32.5819 49.248 32.707 49.5257 32.707 49.815V54.718C32.707 55.0074 32.5819 55.285 32.3593 55.4895C32.1369 55.6943 31.835 55.8093 31.5204 55.8093C31.2057 55.8093 30.9039 55.6943 30.6815 55.4895C30.4588 55.285 30.334 55.0074 30.334 54.718V49.815C30.334 49.5257 30.4588 49.248 30.6815 49.0435C30.9039 48.8388 31.2057 48.7239 31.5204 48.7239Z" fill="white"/>
</mask>
<g mask="url(#mask64_424_5626)">
<path d="M30.334 48.7239H32.707V55.8082H30.334V48.7239Z" fill="#3213E2"/>
</g>
</g>
</g>
</g>
</g>
<mask id="mask65_424_5626" style="mask-type:luminance" maskUnits="userSpaceOnUse" x="37" y="48" width="4" height="15">
<path d="M37.6348 48.7239H40.0078V62.6109H37.6348V48.7239Z" fill="white"/>
</mask>
<g mask="url(#mask65_424_5626)">
<mask id="mask66_424_5626" style="mask-type:luminance" maskUnits="userSpaceOnUse" x="37" y="48" width="4" height="15">
<path d="M38.8214 48.7239C39.1361 48.7239 39.4379 48.8387 39.6603 49.0435C39.8829 49.248 40.0078 49.5256 40.0078 49.815V61.5163C40.0078 61.8057 39.8829 62.0833 39.6603 62.2878C39.4379 62.4926 39.1361 62.6074 38.8214 62.6074C38.5068 62.6074 38.2049 62.4926 37.9823 62.2878C37.7599 62.0833 37.6348 61.8057 37.6348 61.5163V49.815C37.6348 49.5256 37.7599 49.248 37.9823 49.0435C38.2049 48.8387 38.5068 48.7239 38.8214 48.7239Z" fill="white"/>
</mask>
<g mask="url(#mask66_424_5626)">
<mask id="mask67_424_5626" style="mask-type:luminance" maskUnits="userSpaceOnUse" x="37" y="48" width="4" height="15">
<path d="M40.0269 48.7056H37.5879V62.6362H40.0269V48.7056Z" fill="white"/>
</mask>
<g mask="url(#mask67_424_5626)">
<mask id="mask68_424_5626" style="mask-type:luminance" maskUnits="userSpaceOnUse" x="37" y="48" width="4" height="15">
<path d="M37.6348 48.7239H40.0078V62.6109H37.6348V48.7239Z" fill="white"/>
</mask>
<g mask="url(#mask68_424_5626)">
<mask id="mask69_424_5626" style="mask-type:luminance" maskUnits="userSpaceOnUse" x="37" y="48" width="4" height="15">
<path d="M38.8214 48.7239C39.1361 48.7239 39.4379 48.8387 39.6603 49.0435C39.8829 49.248 40.0078 49.5256 40.0078 49.815V61.5163C40.0078 61.8057 39.8829 62.0833 39.6603 62.2878C39.4379 62.4926 39.1361 62.6074 38.8214 62.6074C38.5068 62.6074 38.2049 62.4926 37.9823 62.2878C37.7599 62.0833 37.6348 61.8057 37.6348 61.5163V49.815C37.6348 49.5256 37.7599 49.248 37.9823 49.0435C38.2049 48.8387 38.5068 48.7239 38.8214 48.7239Z" fill="white"/>
</mask>
<g mask="url(#mask69_424_5626)">
<path d="M37.6348 48.7239H40.0078V62.6109H37.6348V48.7239Z" fill="#13B5E2"/>
</g>
</g>
</g>
</g>
</g>
<mask id="mask70_424_5626" style="mask-type:luminance" maskUnits="userSpaceOnUse" x="42" y="48" width="3" height="19">
<path d="M42.125 48.8673H44.498V66.156H42.125V48.8673Z" fill="white"/>
</mask>
<g mask="url(#mask70_424_5626)">
<mask id="mask71_424_5626" style="mask-type:luminance" maskUnits="userSpaceOnUse" x="42" y="48" width="3" height="19">
<path d="M43.3116 48.8673C43.6263 48.8673 43.9279 48.9824 44.1505 49.1869C44.3729 49.3916 44.498 49.6693 44.498 49.9586V65.0589C44.498 65.3483 44.3729 65.6259 44.1505 65.8306C43.9279 66.0352 43.6263 66.1502 43.3116 66.1502C42.997 66.1502 42.6951 66.0352 42.4725 65.8306C42.2501 65.6259 42.125 65.3483 42.125 65.0589V49.9586C42.125 49.6693 42.2501 49.3916 42.4725 49.1869C42.6951 48.9824 42.997 48.8673 43.3116 48.8673Z" fill="white"/>
</mask>
<g mask="url(#mask71_424_5626)">
<mask id="mask72_424_5626" style="mask-type:luminance" maskUnits="userSpaceOnUse" x="42" y="48" width="3" height="19">
<path d="M44.519 48.8237H42.0801V66.1779H44.519V48.8237Z" fill="white"/>
</mask>
<g mask="url(#mask72_424_5626)">
<mask id="mask73_424_5626" style="mask-type:luminance" maskUnits="userSpaceOnUse" x="42" y="48" width="3" height="19">
<path d="M42.125 48.8673H44.498V66.156H42.125V48.8673Z" fill="white"/>
</mask>
<g mask="url(#mask73_424_5626)">
<mask id="mask74_424_5626" style="mask-type:luminance" maskUnits="userSpaceOnUse" x="42" y="48" width="3" height="19">
<path d="M43.3116 48.8673C43.6263 48.8673 43.9279 48.9824 44.1505 49.1869C44.3729 49.3916 44.498 49.6693 44.498 49.9586V65.0589C44.498 65.3483 44.3729 65.6259 44.1505 65.8306C43.9279 66.0352 43.6263 66.1502 43.3116 66.1502C42.997 66.1502 42.6951 66.0352 42.4725 65.8306C42.2501 65.6259 42.125 65.3483 42.125 65.0589V49.9586C42.125 49.6693 42.2501 49.3916 42.4725 49.1869C42.6951 48.9824 42.997 48.8673 43.3116 48.8673Z" fill="white"/>
</mask>
<g mask="url(#mask74_424_5626)">
<path d="M42.125 48.8673H44.498V66.1475H42.125V48.8673Z" fill="#1261EA"/>
</g>
</g>
</g>
</g>
</g>
<mask id="mask75_424_5626" style="mask-type:luminance" maskUnits="userSpaceOnUse" x="46" y="48" width="3" height="14">
<path d="M46.6152 48.8673H48.9883V61.8679H46.6152V48.8673Z" fill="white"/>
</mask>
<g mask="url(#mask75_424_5626)">
<mask id="mask76_424_5626" style="mask-type:luminance" maskUnits="userSpaceOnUse" x="46" y="48" width="3" height="14">
<path d="M47.8016 48.8673C48.1165 48.8673 48.4181 48.9824 48.6408 49.1869C48.8632 49.3916 48.9883 49.6693 48.9883 49.9586V60.7683C48.9883 61.0577 48.8632 61.3351 48.6408 61.5398C48.4181 61.7444 48.1165 61.8594 47.8016 61.8594C47.487 61.8594 47.1854 61.7444 46.9627 61.5398C46.7403 61.3351 46.6152 61.0577 46.6152 60.7683V49.9586C46.6152 49.6693 46.7403 49.3916 46.9627 49.1869C47.1854 48.9824 47.487 48.8673 47.8016 48.8673Z" fill="white"/>
</mask>
<g mask="url(#mask76_424_5626)">
<mask id="mask77_424_5626" style="mask-type:luminance" maskUnits="userSpaceOnUse" x="46" y="48" width="4" height="14">
<path d="M49.0093 48.8237H46.5703V61.8689H49.0093V48.8237Z" fill="white"/>
</mask>
<g mask="url(#mask77_424_5626)">
<mask id="mask78_424_5626" style="mask-type:luminance" maskUnits="userSpaceOnUse" x="46" y="48" width="3" height="14">
<path d="M46.6152 48.8674H48.9883V61.8641H46.6152V48.8674Z" fill="white"/>
</mask>
<g mask="url(#mask78_424_5626)">
<mask id="mask79_424_5626" style="mask-type:luminance" maskUnits="userSpaceOnUse" x="46" y="48" width="3" height="14">
<path d="M47.8016 48.8674C48.1165 48.8674 48.4181 48.9824 48.6408 49.187C48.8632 49.3917 48.9883 49.6693 48.9883 49.9587V60.7684C48.9883 61.0578 48.8632 61.3351 48.6408 61.5399C48.4181 61.7444 48.1165 61.8595 47.8016 61.8595C47.487 61.8595 47.1854 61.7444 46.9627 61.5399C46.7403 61.3351 46.6152 61.0578 46.6152 60.7684V49.9587C46.6152 49.6693 46.7403 49.3917 46.9627 49.187C47.1854 48.9824 47.487 48.8674 47.8016 48.8674Z" fill="white"/>
</mask>
<g mask="url(#mask79_424_5626)">
<path d="M46.6152 48.8674H48.9883V61.8595H46.6152V48.8674Z" fill="#7712EA"/>
</g>
</g>
</g>
</g>
</g>
<mask id="mask80_424_5626" style="mask-type:luminance" maskUnits="userSpaceOnUse" x="52" y="48" width="4" height="21">
<path d="M52.6621 48.8673H55.0351V68.2702H52.6621V48.8673Z" fill="white"/>
</mask>
<g mask="url(#mask80_424_5626)">
<mask id="mask81_424_5626" style="mask-type:luminance" maskUnits="userSpaceOnUse" x="52" y="48" width="4" height="21">
<path d="M53.8487 48.8673C54.1634 48.8673 54.4653 48.9824 54.6876 49.1869C54.9103 49.3916 55.0351 49.6693 55.0351 49.9586V67.1765C55.0351 67.4659 54.9103 67.7435 54.6876 67.948C54.4653 68.1526 54.1634 68.2676 53.8487 68.2676C53.5341 68.2676 53.2322 68.1526 53.0096 67.948C52.7872 67.7435 52.6621 67.4659 52.6621 67.1765V49.9586C52.6621 49.6693 52.7872 49.3916 53.0096 49.1869C53.2322 48.9824 53.5341 48.8673 53.8487 48.8673Z" fill="white"/>
</mask>
<g mask="url(#mask81_424_5626)">
<mask id="mask82_424_5626" style="mask-type:luminance" maskUnits="userSpaceOnUse" x="52" y="48" width="4" height="21">
<path d="M55.0444 48.8237H52.6055V68.3029H55.0444V48.8237Z" fill="white"/>
</mask>
<g mask="url(#mask82_424_5626)">
<mask id="mask83_424_5626" style="mask-type:luminance" maskUnits="userSpaceOnUse" x="52" y="48" width="4" height="21">
<path d="M52.6621 48.8674H55.0351V68.2702H52.6621V48.8674Z" fill="white"/>
</mask>
<g mask="url(#mask83_424_5626)">
<mask id="mask84_424_5626" style="mask-type:luminance" maskUnits="userSpaceOnUse" x="52" y="48" width="4" height="21">
<path d="M53.8487 48.8674C54.1634 48.8674 54.4653 48.9824 54.6876 49.187C54.9103 49.3917 55.0351 49.6693 55.0351 49.9587V67.1766C55.0351 67.466 54.9103 67.7436 54.6876 67.9481C54.4653 68.1526 54.1634 68.2677 53.8487 68.2677C53.5341 68.2677 53.2322 68.1526 53.0096 67.9481C52.7872 67.7436 52.6621 67.466 52.6621 67.1766V49.9587C52.6621 49.6693 52.7872 49.3917 53.0096 49.187C53.2322 48.9824 53.5341 48.8674 53.8487 48.8674Z" fill="white"/>
</mask>
<g mask="url(#mask84_424_5626)">
<path d="M52.6621 48.8674H55.0351V68.2702H52.6621V48.8674Z" fill="#12ADEA"/>
</g>
</g>
</g>
</g>
</g>
<mask id="mask85_424_5626" style="mask-type:luminance" maskUnits="userSpaceOnUse" x="57" y="48" width="3" height="15">
<path d="M57.1523 48.8673H59.5254V62.6095H57.1523V48.8673Z" fill="white"/>
</mask>
<g mask="url(#mask85_424_5626)">
<mask id="mask86_424_5626" style="mask-type:luminance" maskUnits="userSpaceOnUse" x="57" y="48" width="3" height="15">
<path d="M58.339 48.8673C58.6536 48.8673 58.9552 48.9824 59.1779 49.1869C59.4003 49.3916 59.5254 49.6693 59.5254 49.9586V61.5163C59.5254 61.8057 59.4003 62.0833 59.1779 62.2878C58.9552 62.4926 58.6536 62.6074 58.339 62.6074C58.0241 62.6074 57.7225 62.4926 57.4998 62.2878C57.2775 62.0833 57.1523 61.8057 57.1523 61.5163V49.9586C57.1523 49.6693 57.2775 49.3916 57.4998 49.1869C57.7225 48.9824 58.0241 48.8673 58.339 48.8673Z" fill="white"/>
</mask>
<g mask="url(#mask86_424_5626)">
<mask id="mask87_424_5626" style="mask-type:luminance" maskUnits="userSpaceOnUse" x="57" y="48" width="3" height="15">
<path d="M59.5366 48.8237H57.0977V62.6362H59.5366V48.8237Z" fill="white"/>
</mask>
<g mask="url(#mask87_424_5626)">
<mask id="mask88_424_5626" style="mask-type:luminance" maskUnits="userSpaceOnUse" x="57" y="48" width="3" height="15">
<path d="M57.1523 48.8673H59.5254V62.6095H57.1523V48.8673Z" fill="white"/>
</mask>
<g mask="url(#mask88_424_5626)">
<mask id="mask89_424_5626" style="mask-type:luminance" maskUnits="userSpaceOnUse" x="57" y="48" width="3" height="15">
<path d="M58.339 48.8673C58.6536 48.8673 58.9552 48.9824 59.1779 49.1869C59.4003 49.3916 59.5254 49.6693 59.5254 49.9586V61.5163C59.5254 61.8057 59.4003 62.0833 59.1779 62.2878C58.9552 62.4926 58.6536 62.6074 58.339 62.6074C58.0241 62.6074 57.7225 62.4926 57.4998 62.2878C57.2775 62.0833 57.1523 61.8057 57.1523 61.5163V49.9586C57.1523 49.6693 57.2775 49.3916 57.4998 49.1869C57.7225 48.9824 58.0241 48.8673 58.339 48.8673Z" fill="white"/>
</mask>
<g mask="url(#mask89_424_5626)">
<path d="M57.1523 48.8673H59.5254V62.6095H57.1523V48.8673Z" fill="#0088FF"/>
</g>
</g>
</g>
</g>
</g>
<mask id="mask90_424_5626" style="mask-type:luminance" maskUnits="userSpaceOnUse" x="61" y="48" width="4" height="11">
<path d="M61.6426 48.939H64.0156V58.5723H61.6426V48.939Z" fill="white"/>
</mask>
<g mask="url(#mask90_424_5626)">
<mask id="mask91_424_5626" style="mask-type:luminance" maskUnits="userSpaceOnUse" x="61" y="48" width="4" height="11">
<path d="M62.829 48.939C63.1439 48.939 63.4455 49.0541 63.6681 49.2588C63.8905 49.4634 64.0156 49.741 64.0156 50.0303V57.4764C64.0156 57.7658 63.8905 58.0434 63.6681 58.2479C63.4455 58.4526 63.1439 58.5675 62.829 58.5675C62.5143 58.5675 62.2127 58.4526 61.9901 58.2479C61.7677 58.0434 61.6426 57.7658 61.6426 57.4764V50.0303C61.6426 49.741 61.7677 49.4634 61.9901 49.2588C62.2127 49.0541 62.5143 48.939 62.829 48.939Z" fill="white"/>
</mask>
<g mask="url(#mask91_424_5626)">
<mask id="mask92_424_5626" style="mask-type:luminance" maskUnits="userSpaceOnUse" x="61" y="48" width="4" height="11">
<path d="M64.0288 48.8828H61.5898V58.6223H64.0288V48.8828Z" fill="white"/>
</mask>
<g mask="url(#mask92_424_5626)">
<mask id="mask93_424_5626" style="mask-type:luminance" maskUnits="userSpaceOnUse" x="61" y="48" width="4" height="11">
<path d="M61.6426 48.939H64.0156V58.5723H61.6426V48.939Z" fill="white"/>
</mask>
<g mask="url(#mask93_424_5626)">
<mask id="mask94_424_5626" style="mask-type:luminance" maskUnits="userSpaceOnUse" x="61" y="48" width="4" height="11">
<path d="M62.829 48.939C63.1439 48.939 63.4455 49.0541 63.6681 49.2588C63.8905 49.4634 64.0156 49.741 64.0156 50.0303V57.4764C64.0156 57.7658 63.8905 58.0434 63.6681 58.2479C63.4455 58.4526 63.1439 58.5675 62.829 58.5675C62.5143 58.5675 62.2127 58.4526 61.9901 58.2479C61.7677 58.0434 61.6426 57.7658 61.6426 57.4764V50.0303C61.6426 49.741 61.7677 49.4634 61.9901 49.2588C62.2127 49.0541 62.5143 48.939 62.829 48.939Z" fill="white"/>
</mask>
<g mask="url(#mask94_424_5626)">
<path d="M61.6426 48.939H64.0156V58.5638H61.6426V48.939Z" fill="#0C84C0"/>
</g>
</g>
</g>
</g>
</g>
<path d="M25.4626 41.7614L23.2467 41.8977C23.2088 41.7083 23.1274 41.5379 23.0024 41.3864C22.8774 41.2311 22.7126 41.108 22.508 41.017C22.3073 40.9223 22.0668 40.875 21.7864 40.875C21.4114 40.875 21.0952 40.9545 20.8376 41.1136C20.58 41.2689 20.4512 41.4773 20.4512 41.7386C20.4512 41.947 20.5346 42.1231 20.7012 42.267C20.8679 42.411 21.1539 42.5265 21.5592 42.6136L23.1387 42.9318C23.9872 43.1061 24.6198 43.3864 25.0364 43.7727C25.4531 44.1591 25.6615 44.6667 25.6615 45.2955C25.6615 45.8674 25.4929 46.3693 25.1558 46.8011C24.8224 47.233 24.3641 47.5701 23.7808 47.8125C23.2012 48.0511 22.5327 48.1705 21.7751 48.1705C20.6198 48.1705 19.6993 47.9299 19.0137 47.4489C18.3319 46.964 17.9323 46.3049 17.8149 45.4716L20.1955 45.3466C20.2675 45.6989 20.4418 45.9678 20.7183 46.1534C20.9948 46.3352 21.3489 46.4261 21.7808 46.4261C22.205 46.4261 22.5459 46.3447 22.8035 46.1818C23.0649 46.0152 23.1974 45.8011 23.2012 45.5398C23.1974 45.3201 23.1046 45.1402 22.9228 45C22.741 44.8561 22.4607 44.7462 22.0819 44.6705L20.5705 44.3693C19.7183 44.1989 19.0838 43.9034 18.6671 43.483C18.2543 43.0625 18.0478 42.5265 18.0478 41.875C18.0478 41.3144 18.1993 40.8314 18.5024 40.4261C18.8092 40.0208 19.2391 39.7083 19.7921 39.4886C20.3489 39.2689 21.0005 39.1591 21.7467 39.1591C22.849 39.1591 23.7164 39.392 24.3489 39.858C24.9853 40.3239 25.3565 40.9583 25.4626 41.7614ZM31.4488 48.1705C30.5662 48.1705 29.8029 47.983 29.159 47.608C28.5189 47.2292 28.0245 46.7027 27.6761 46.0284C27.3276 45.3504 27.1533 44.5644 27.1533 43.6705C27.1533 42.7689 27.3276 41.9811 27.6761 41.3068C28.0245 40.6288 28.5189 40.1023 29.159 39.7273C29.8029 39.3485 30.5662 39.1591 31.4488 39.1591C32.3314 39.1591 33.0927 39.3485 33.7329 39.7273C34.3768 40.1023 34.873 40.6288 35.2215 41.3068C35.57 41.9811 35.7442 42.7689 35.7442 43.6705C35.7442 44.5644 35.57 45.3504 35.2215 46.0284C34.873 46.7027 34.3768 47.2292 33.7329 47.608C33.0927 47.983 32.3314 48.1705 31.4488 48.1705ZM31.4601 46.2955C31.8617 46.2955 32.1969 46.1818 32.4658 45.9545C32.7348 45.7235 32.9374 45.4091 33.0738 45.0114C33.2139 44.6136 33.284 44.161 33.284 43.6534C33.284 43.1458 33.2139 42.6932 33.0738 42.2955C32.9374 41.8977 32.7348 41.5833 32.4658 41.3523C32.1969 41.1212 31.8617 41.0057 31.4601 41.0057C31.0548 41.0057 30.7139 41.1212 30.4374 41.3523C30.1647 41.5833 29.9582 41.8977 29.8181 42.2955C29.6817 42.6932 29.6136 43.1458 29.6136 43.6534C29.6136 44.161 29.6817 44.6136 29.8181 45.0114C29.9582 45.4091 30.1647 45.7235 30.4374 45.9545C30.7139 46.1818 31.0548 46.2955 31.4601 46.2955ZM40.0586 42.9545V48H37.6381V39.2727H39.9449V40.8125H40.0472C40.2404 40.3049 40.5642 39.9034 41.0188 39.608C41.4733 39.3087 42.0245 39.1591 42.6722 39.1591C43.2782 39.1591 43.8067 39.2917 44.2574 39.5568C44.7082 39.822 45.0586 40.2008 45.3086 40.6932C45.5586 41.1818 45.6836 41.7652 45.6836 42.4432V48H43.2631V42.875C43.2669 42.3409 43.1305 41.9242 42.854 41.625C42.5775 41.322 42.1968 41.1705 41.712 41.1705C41.3862 41.1705 41.0983 41.2405 40.8483 41.3807C40.6021 41.5208 40.4089 41.7254 40.2688 41.9943C40.1324 42.2595 40.0623 42.5795 40.0586 42.9545ZM50.3999 48.1648C49.843 48.1648 49.3468 48.0682 48.9112 47.875C48.4756 47.678 48.1309 47.3883 47.8771 47.0057C47.6271 46.6193 47.5021 46.1383 47.5021 45.5625C47.5021 45.0777 47.5911 44.6705 47.7692 44.3409C47.9472 44.0114 48.1896 43.7462 48.4964 43.5455C48.8033 43.3447 49.1518 43.1932 49.5419 43.0909C49.9358 42.9886 50.3487 42.9167 50.7805 42.875C51.2881 42.822 51.6972 42.7727 52.0078 42.7273C52.3184 42.678 52.5438 42.6061 52.6839 42.5114C52.8241 42.4167 52.8942 42.2765 52.8942 42.0909V42.0568C52.8942 41.697 52.7805 41.4186 52.5533 41.2216C52.3298 41.0246 52.0116 40.9261 51.5987 40.9261C51.1631 40.9261 50.8165 41.0227 50.5589 41.2159C50.3014 41.4053 50.1309 41.6439 50.0476 41.9318L47.8089 41.75C47.9226 41.2197 48.1461 40.7614 48.4794 40.375C48.8127 39.9848 49.2427 39.6856 49.7692 39.4773C50.2995 39.2652 50.9131 39.1591 51.6101 39.1591C52.0949 39.1591 52.5589 39.2159 53.0021 39.3295C53.4491 39.4432 53.8449 39.6193 54.1896 39.858C54.5381 40.0966 54.8127 40.4034 55.0135 40.7784C55.2143 41.1496 55.3146 41.5947 55.3146 42.1136V48H53.0192V46.7898H52.951C52.8108 47.0625 52.6233 47.303 52.3885 47.5114C52.1536 47.7159 51.8714 47.8769 51.5419 47.9943C51.2124 48.108 50.8317 48.1648 50.3999 48.1648ZM51.093 46.4943C51.4491 46.4943 51.7635 46.4242 52.0362 46.2841C52.3089 46.1402 52.523 45.947 52.6783 45.7045C52.8336 45.4621 52.9112 45.1875 52.9112 44.8807V43.9545C52.8355 44.0038 52.7313 44.0492 52.5987 44.0909C52.4699 44.1288 52.3241 44.1648 52.1612 44.1989C51.9983 44.2292 51.8355 44.2576 51.6726 44.2841C51.5097 44.3068 51.362 44.3277 51.2294 44.3466C50.9453 44.3883 50.6972 44.4545 50.4851 44.5455C50.273 44.6364 50.1082 44.7595 49.9908 44.9148C49.8733 45.0663 49.8146 45.2557 49.8146 45.483C49.8146 45.8125 49.9339 46.0644 50.1726 46.2386C50.415 46.4091 50.7218 46.4943 51.093 46.4943ZM57.5125 48V39.2727H59.8591V40.7955H59.95C60.1091 40.2538 60.3761 39.8447 60.7511 39.5682C61.1261 39.2879 61.5579 39.1477 62.0466 39.1477C62.1678 39.1477 62.2985 39.1553 62.4386 39.1705C62.5788 39.1856 62.7019 39.2064 62.8079 39.233V41.3807C62.6943 41.3466 62.5371 41.3163 62.3363 41.2898C62.1356 41.2633 61.9519 41.25 61.7852 41.25C61.4291 41.25 61.111 41.3277 60.8307 41.483C60.5541 41.6345 60.3344 41.8466 60.1716 42.1193C60.0125 42.392 59.9329 42.7064 59.9329 43.0625V48H57.5125ZM66.618 48.1648C66.0612 48.1648 65.565 48.0682 65.1293 47.875C64.6937 47.678 64.349 47.3883 64.0953 47.0057C63.8453 46.6193 63.7203 46.1383 63.7203 45.5625C63.7203 45.0777 63.8093 44.6705 63.9873 44.3409C64.1653 44.0114 64.4078 43.7462 64.7146 43.5455C65.0214 43.3447 65.3699 43.1932 65.76 43.0909C66.154 42.9886 66.5668 42.9167 66.9987 42.875C67.5062 42.822 67.9153 42.7727 68.2259 42.7273C68.5365 42.678 68.7619 42.6061 68.9021 42.5114C69.0422 42.4167 69.1123 42.2765 69.1123 42.0909V42.0568C69.1123 41.697 68.9987 41.4186 68.7714 41.2216C68.5479 41.0246 68.2297 40.9261 67.8168 40.9261C67.3812 40.9261 67.0346 41.0227 66.7771 41.2159C66.5195 41.4053 66.349 41.6439 66.2657 41.9318L64.0271 41.75C64.1407 41.2197 64.3642 40.7614 64.6975 40.375C65.0309 39.9848 65.4608 39.6856 65.9873 39.4773C66.5176 39.2652 67.1312 39.1591 67.8282 39.1591C68.3131 39.1591 68.7771 39.2159 69.2203 39.3295C69.6672 39.4432 70.0631 39.6193 70.4078 39.858C70.7562 40.0966 71.0309 40.4034 71.2316 40.7784C71.4324 41.1496 71.5328 41.5947 71.5328 42.1136V48H69.2373V46.7898H69.1691C69.029 47.0625 68.8415 47.303 68.6066 47.5114C68.3718 47.7159 68.0896 47.8769 67.76 47.9943C67.4305 48.108 67.0498 48.1648 66.618 48.1648ZM67.3112 46.4943C67.6672 46.4943 67.9816 46.4242 68.2543 46.2841C68.5271 46.1402 68.7411 45.947 68.8964 45.7045C69.0517 45.4621 69.1293 45.1875 69.1293 44.8807V43.9545C69.0536 44.0038 68.9494 44.0492 68.8168 44.0909C68.6881 44.1288 68.5422 44.1648 68.3793 44.1989C68.2165 44.2292 68.0536 44.2576 67.8907 44.2841C67.7278 44.3068 67.5801 44.3277 67.4475 44.3466C67.1634 44.3883 66.9153 44.4545 66.7032 44.5455C66.4911 44.6364 66.3263 44.7595 66.2089 44.9148C66.0915 45.0663 66.0328 45.2557 66.0328 45.483C66.0328 45.8125 66.1521 46.0644 66.3907 46.2386C66.6331 46.4091 66.94 46.4943 67.3112 46.4943Z" fill="#DFF3E4"/>
</svg>
