<svg width="201" height="179" viewBox="0 0 201 179" fill="none" xmlns="http://www.w3.org/2000/svg">
<mask id="mask0_597_932" style="mask-type:luminance" maskUnits="userSpaceOnUse" x="46" y="69" width="6" height="9">
<path d="M46.2549 69.4053H51.4156V77.7711H46.2549V69.4053Z" fill="white"/>
</mask>
<g mask="url(#mask0_597_932)">
<mask id="mask1_597_932" style="mask-type:luminance" maskUnits="userSpaceOnUse" x="46" y="69" width="6" height="9">
<path d="M48.835 69.4053C49.5198 69.4053 50.1758 69.6471 50.6599 70.0783C51.1436 70.509 51.4156 71.0936 51.4156 71.703V75.4564C51.4156 76.0663 51.1436 76.6504 50.6599 77.0816C50.1758 77.5123 49.5198 77.7546 48.835 77.7546C48.1507 77.7546 47.4948 77.5123 47.0106 77.0816C46.527 76.6504 46.2549 76.0663 46.2549 75.4564V71.703C46.2549 71.0936 46.527 70.509 47.0106 70.0783C47.4948 69.6471 48.1507 69.4053 48.835 69.4053Z" fill="white"/>
</mask>
<g mask="url(#mask1_597_932)">
<mask id="mask2_597_932" style="mask-type:luminance" maskUnits="userSpaceOnUse" x="46" y="69" width="6" height="9">
<path d="M51.4692 69.3228H46.165V77.7755H51.4692V69.3228Z" fill="white"/>
</mask>
<g mask="url(#mask2_597_932)">
<mask id="mask3_597_932" style="mask-type:luminance" maskUnits="userSpaceOnUse" x="46" y="69" width="6" height="9">
<path d="M46.2549 69.4053H51.4156V77.7556H46.2549V69.4053Z" fill="white"/>
</mask>
<g mask="url(#mask3_597_932)">
<mask id="mask4_597_932" style="mask-type:luminance" maskUnits="userSpaceOnUse" x="46" y="69" width="6" height="9">
<path d="M48.835 69.4053C49.5198 69.4053 50.1758 69.6471 50.6599 70.0783C51.1436 70.509 51.4156 71.0936 51.4156 71.703V75.4564C51.4156 76.0663 51.1436 76.6504 50.6599 77.0816C50.1758 77.5123 49.5198 77.7546 48.835 77.7546C48.1507 77.7546 47.4948 77.5123 47.0106 77.0816C46.527 76.6504 46.2549 76.0663 46.2549 75.4564V71.703C46.2549 71.0936 46.527 70.509 47.0106 70.0783C47.4948 69.6471 48.1507 69.4053 48.835 69.4053Z" fill="white"/>
</mask>
<g mask="url(#mask4_597_932)">
<path d="M46.2549 69.4053H51.4156V77.7532H46.2549V69.4053Z" fill="#EA6012"/>
</g>
</g>
</g>
</g>
</g>
<mask id="mask5_597_932" style="mask-type:luminance" maskUnits="userSpaceOnUse" x="55" y="63" width="6" height="15">
<path d="M55.499 63.043H60.6598V77.764H55.499V63.043Z" fill="white"/>
</mask>
<g mask="url(#mask5_597_932)">
<mask id="mask6_597_932" style="mask-type:luminance" maskUnits="userSpaceOnUse" x="55" y="63" width="6" height="15">
<path d="M58.0791 63.043C58.7634 63.043 59.4199 63.2848 59.9041 63.716C60.3877 64.1467 60.6598 64.7313 60.6598 65.3407V75.457C60.6598 76.0669 60.3877 76.651 59.9041 77.0822C59.4199 77.5129 58.7634 77.7552 58.0791 77.7552C57.3948 77.7552 56.7384 77.5129 56.2547 77.0822C55.7706 76.651 55.499 76.0669 55.499 75.457V65.3407C55.499 64.7313 55.7706 64.1467 56.2547 63.716C56.7384 63.2848 57.3948 63.043 58.0791 63.043Z" fill="white"/>
</mask>
<g mask="url(#mask6_597_932)">
<mask id="mask7_597_932" style="mask-type:luminance" maskUnits="userSpaceOnUse" x="55" y="62" width="6" height="16">
<path d="M60.6831 62.9839H55.3789V77.7762H60.6831V62.9839Z" fill="white"/>
</mask>
<g mask="url(#mask7_597_932)">
<mask id="mask8_597_932" style="mask-type:luminance" maskUnits="userSpaceOnUse" x="55" y="63" width="6" height="15">
<path d="M55.499 63.043H60.6598V77.7562H55.499V63.043Z" fill="white"/>
</mask>
<g mask="url(#mask8_597_932)">
<mask id="mask9_597_932" style="mask-type:luminance" maskUnits="userSpaceOnUse" x="55" y="63" width="6" height="15">
<path d="M58.0791 63.043C58.7634 63.043 59.4199 63.2848 59.9041 63.716C60.3877 64.1467 60.6598 64.7313 60.6598 65.3407V75.457C60.6598 76.0669 60.3877 76.651 59.9041 77.0822C59.4199 77.5129 58.7634 77.7552 58.0791 77.7552C57.3948 77.7552 56.7384 77.5129 56.2547 77.0822C55.7706 76.651 55.499 76.0669 55.499 75.457V65.3407C55.499 64.7313 55.7706 64.1467 56.2547 63.716C56.7384 63.2848 57.3948 63.043 58.0791 63.043Z" fill="white"/>
</mask>
<g mask="url(#mask9_597_932)">
<path d="M55.499 63.043H60.6598V77.764H55.499V63.043Z" fill="#EA6012"/>
</g>
</g>
</g>
</g>
</g>
<mask id="mask10_597_932" style="mask-type:luminance" maskUnits="userSpaceOnUse" x="65" y="55" width="6" height="23">
<path d="M65.2939 55.8125H70.4547V77.768H65.2939V55.8125Z" fill="white"/>
</mask>
<g mask="url(#mask10_597_932)">
<mask id="mask11_597_932" style="mask-type:luminance" maskUnits="userSpaceOnUse" x="65" y="55" width="6" height="23">
<path d="M67.8741 55.8125C68.5583 55.8125 69.2148 56.0543 69.699 56.4855C70.1826 56.9162 70.4547 57.5008 70.4547 58.1102V75.4571C70.4547 76.067 70.1826 76.6512 69.699 77.0823C69.2148 77.513 68.5583 77.7553 67.8741 77.7553C67.1898 77.7553 66.5333 77.513 66.0497 77.0823C65.5655 76.6512 65.2939 76.067 65.2939 75.4571V58.1102C65.2939 57.5008 65.5655 56.9162 66.0497 56.4855C66.5333 56.0543 67.1898 55.8125 67.8741 55.8125Z" fill="white"/>
</mask>
<g mask="url(#mask11_597_932)">
<mask id="mask12_597_932" style="mask-type:luminance" maskUnits="userSpaceOnUse" x="65" y="55" width="6" height="23">
<path d="M70.5942 55.7744H65.29V77.7765H70.5942V55.7744Z" fill="white"/>
</mask>
<g mask="url(#mask12_597_932)">
<mask id="mask13_597_932" style="mask-type:luminance" maskUnits="userSpaceOnUse" x="65" y="55" width="6" height="23">
<path d="M65.2939 55.8125H70.4547V77.7563H65.2939V55.8125Z" fill="white"/>
</mask>
<g mask="url(#mask13_597_932)">
<mask id="mask14_597_932" style="mask-type:luminance" maskUnits="userSpaceOnUse" x="65" y="55" width="6" height="23">
<path d="M67.8741 55.8125C68.5583 55.8125 69.2148 56.0543 69.699 56.4855C70.1826 56.9162 70.4547 57.5008 70.4547 58.1102V75.4571C70.4547 76.067 70.1826 76.6512 69.699 77.0823C69.2148 77.513 68.5583 77.7553 67.8741 77.7553C67.1898 77.7553 66.5333 77.513 66.0497 77.0823C65.5655 76.6512 65.2939 76.067 65.2939 75.4571V58.1102C65.2939 57.5008 65.5655 56.9162 66.0497 56.4855C66.5333 56.0543 67.1898 55.8125 67.8741 55.8125Z" fill="white"/>
</mask>
<g mask="url(#mask14_597_932)">
<path d="M65.2939 55.8125H70.4547V77.75H65.2939V55.8125Z" fill="#EA6012"/>
</g>
</g>
</g>
</g>
</g>
<mask id="mask15_597_932" style="mask-type:luminance" maskUnits="userSpaceOnUse" x="74" y="64" width="6" height="14">
<path d="M74.5371 64.2573H79.6979V77.7576H74.5371V64.2573Z" fill="white"/>
</mask>
<g mask="url(#mask15_597_932)">
<mask id="mask16_597_932" style="mask-type:luminance" maskUnits="userSpaceOnUse" x="74" y="64" width="6" height="14">
<path d="M77.1172 64.2573C77.8015 64.2573 78.458 64.4996 78.9416 64.9303C79.4258 65.3615 79.6979 65.9461 79.6979 66.5555V75.457C79.6979 76.0668 79.4258 76.651 78.9416 77.0822C78.458 77.5129 77.8015 77.7552 77.1172 77.7552C76.4329 77.7552 75.7765 77.5129 75.2928 77.0822C74.8086 76.651 74.5371 76.0668 74.5371 75.457V66.5555C74.5371 65.9461 74.8086 65.3615 75.2928 64.9303C75.7765 64.4996 76.4329 64.2573 77.1172 64.2573Z" fill="white"/>
</mask>
<g mask="url(#mask16_597_932)">
<mask id="mask17_597_932" style="mask-type:luminance" maskUnits="userSpaceOnUse" x="74" y="64" width="6" height="14">
<path d="M79.8061 64.2271H74.502V77.7764H79.8061V64.2271Z" fill="white"/>
</mask>
<g mask="url(#mask17_597_932)">
<mask id="mask18_597_932" style="mask-type:luminance" maskUnits="userSpaceOnUse" x="74" y="64" width="6" height="14">
<path d="M74.5371 64.2573H79.6979V77.7561H74.5371V64.2573Z" fill="white"/>
</mask>
<g mask="url(#mask18_597_932)">
<mask id="mask19_597_932" style="mask-type:luminance" maskUnits="userSpaceOnUse" x="74" y="64" width="6" height="14">
<path d="M77.1172 64.2573C77.8015 64.2573 78.458 64.4996 78.9416 64.9303C79.4258 65.3615 79.6979 65.9461 79.6979 66.5555V75.457C79.6979 76.0668 79.4258 76.651 78.9416 77.0822C78.458 77.5129 77.8015 77.7552 77.1172 77.7552C76.4329 77.7552 75.7765 77.5129 75.2928 77.0822C74.8086 76.651 74.5371 76.0668 74.5371 75.457V66.5555C74.5371 65.9461 74.8086 65.3615 75.2928 64.9303C75.7765 64.4996 76.4329 64.2573 77.1172 64.2573Z" fill="white"/>
</mask>
<g mask="url(#mask19_597_932)">
<path d="M74.5371 64.2573H79.6979V77.7576H74.5371V64.2573Z" fill="#EA6012"/>
</g>
</g>
</g>
</g>
</g>
<mask id="mask20_597_932" style="mask-type:luminance" maskUnits="userSpaceOnUse" x="90" y="45" width="7" height="33">
<path d="M90.9365 45.2837H96.0973V77.76H90.9365V45.2837Z" fill="white"/>
</mask>
<g mask="url(#mask20_597_932)">
<mask id="mask21_597_932" style="mask-type:luminance" maskUnits="userSpaceOnUse" x="90" y="45" width="7" height="33">
<path d="M93.5172 45.2837C94.2015 45.2837 94.8579 45.526 95.3416 45.9567C95.8258 46.3879 96.0973 46.972 96.0973 47.5819V75.4564C96.0973 76.0663 95.8258 76.6505 95.3416 77.0816C94.8579 77.5123 94.2015 77.7546 93.5172 77.7546C92.8329 77.7546 92.1764 77.5123 91.6922 77.0816C91.2086 76.6505 90.9365 76.0663 90.9365 75.4564V47.5819C90.9365 46.972 91.2086 46.3879 91.6922 45.9567C92.1764 45.526 92.8329 45.2837 93.5172 45.2837Z" fill="white"/>
</mask>
<g mask="url(#mask21_597_932)">
<mask id="mask22_597_932" style="mask-type:luminance" maskUnits="userSpaceOnUse" x="90" y="45" width="7" height="33">
<path d="M96.1372 45.2075H90.833V77.7756H96.1372V45.2075Z" fill="white"/>
</mask>
<g mask="url(#mask22_597_932)">
<mask id="mask23_597_932" style="mask-type:luminance" maskUnits="userSpaceOnUse" x="90" y="45" width="7" height="33">
<path d="M90.9365 45.2837H96.0973V77.7556H90.9365V45.2837Z" fill="white"/>
</mask>
<g mask="url(#mask23_597_932)">
<mask id="mask24_597_932" style="mask-type:luminance" maskUnits="userSpaceOnUse" x="90" y="45" width="7" height="33">
<path d="M93.5172 45.2837C94.2015 45.2837 94.8579 45.526 95.3416 45.9567C95.8258 46.3879 96.0973 46.972 96.0973 47.5819V75.4564C96.0973 76.0663 95.8258 76.6505 95.3416 77.0816C94.8579 77.5123 94.2015 77.7546 93.5172 77.7546C92.8329 77.7546 92.1764 77.5123 91.6922 77.0816C91.2086 76.6505 90.9365 76.0663 90.9365 75.4564V47.5819C90.9365 46.972 91.2086 46.3879 91.6922 45.9567C92.1764 45.526 92.8329 45.2837 93.5172 45.2837Z" fill="white"/>
</mask>
<g mask="url(#mask24_597_932)">
<path d="M90.9365 45.2837H96.0973V77.76H90.9365V45.2837Z" fill="#E25E13"/>
</g>
</g>
</g>
</g>
</g>
<mask id="mask25_597_932" style="mask-type:luminance" maskUnits="userSpaceOnUse" x="100" y="39" width="6" height="40">
<path d="M100.704 39.0244H105.865V78.2147H100.704V39.0244Z" fill="white"/>
</mask>
<g mask="url(#mask25_597_932)">
<mask id="mask26_597_932" style="mask-type:luminance" maskUnits="userSpaceOnUse" x="100" y="39" width="6" height="40">
<path d="M103.285 39.0244C103.969 39.0244 104.625 39.2662 105.109 39.6974C105.593 40.1281 105.865 40.7127 105.865 41.3221V75.9072C105.865 76.5166 105.593 77.1012 105.109 77.5319C104.625 77.9631 103.969 78.2054 103.285 78.2054C102.6 78.2054 101.944 77.9631 101.46 77.5319C100.976 77.1012 100.704 76.5166 100.704 75.9072V41.3221C100.704 40.7127 100.976 40.1281 101.46 39.6974C101.944 39.2662 102.6 39.0244 103.285 39.0244Z" fill="white"/>
</mask>
<g mask="url(#mask26_597_932)">
<mask id="mask27_597_932" style="mask-type:luminance" maskUnits="userSpaceOnUse" x="100" y="38" width="6" height="41">
<path d="M105.909 38.9927H100.604V78.2732H105.909V38.9927Z" fill="white"/>
</mask>
<g mask="url(#mask27_597_932)">
<mask id="mask28_597_932" style="mask-type:luminance" maskUnits="userSpaceOnUse" x="100" y="39" width="6" height="40">
<path d="M100.704 39.0244H105.865V78.2147H100.704V39.0244Z" fill="white"/>
</mask>
<g mask="url(#mask28_597_932)">
<mask id="mask29_597_932" style="mask-type:luminance" maskUnits="userSpaceOnUse" x="100" y="39" width="6" height="40">
<path d="M103.285 39.0244C103.969 39.0244 104.625 39.2662 105.109 39.6974C105.593 40.1281 105.865 40.7127 105.865 41.3221V75.9072C105.865 76.5166 105.593 77.1012 105.109 77.5319C104.625 77.9631 103.969 78.2054 103.285 78.2054C102.6 78.2054 101.944 77.9631 101.46 77.5319C100.976 77.1012 100.704 76.5166 100.704 75.9072V41.3221C100.704 40.7127 100.976 40.1281 101.46 39.6974C101.944 39.2662 102.6 39.0244 103.285 39.0244Z" fill="white"/>
</mask>
<g mask="url(#mask29_597_932)">
<path d="M100.704 39.0244H105.865V78.1967H100.704V39.0244Z" fill="#EA6012"/>
</g>
</g>
</g>
</g>
</g>
<mask id="mask30_597_932" style="mask-type:luminance" maskUnits="userSpaceOnUse" x="110" y="48" width="6" height="31">
<path d="M110.471 48.2798H115.631V78.2068H110.471V48.2798Z" fill="white"/>
</mask>
<g mask="url(#mask30_597_932)">
<mask id="mask31_597_932" style="mask-type:luminance" maskUnits="userSpaceOnUse" x="110" y="48" width="6" height="31">
<path d="M113.051 48.2798C113.736 48.2798 114.392 48.5221 114.876 48.9533C115.359 49.384 115.631 49.9686 115.631 50.578V75.9077C115.631 76.5171 115.359 77.1017 114.876 77.5324C114.392 77.9636 113.736 78.2059 113.051 78.2059C112.367 78.2059 111.711 77.9636 111.226 77.5324C110.743 77.1017 110.471 76.5171 110.471 75.9077V50.578C110.471 49.9686 110.743 49.384 111.226 48.9533C111.711 48.5221 112.367 48.2798 113.051 48.2798Z" fill="white"/>
</mask>
<g mask="url(#mask31_597_932)">
<mask id="mask32_597_932" style="mask-type:luminance" maskUnits="userSpaceOnUse" x="110" y="48" width="6" height="31">
<path d="M115.679 48.1914H110.375V78.2734H115.679V48.1914Z" fill="white"/>
</mask>
<g mask="url(#mask32_597_932)">
<mask id="mask33_597_932" style="mask-type:luminance" maskUnits="userSpaceOnUse" x="110" y="48" width="6" height="31">
<path d="M110.471 48.2798H115.631V78.2068H110.471V48.2798Z" fill="white"/>
</mask>
<g mask="url(#mask33_597_932)">
<mask id="mask34_597_932" style="mask-type:luminance" maskUnits="userSpaceOnUse" x="110" y="48" width="6" height="31">
<path d="M113.051 48.2798C113.736 48.2798 114.392 48.5221 114.876 48.9533C115.359 49.384 115.631 49.9686 115.631 50.578V75.9077C115.631 76.5171 115.359 77.1017 114.876 77.5324C114.392 77.9636 113.736 78.2059 113.051 78.2059C112.367 78.2059 111.711 77.9636 111.226 77.5324C110.743 77.1017 110.471 76.5171 110.471 75.9077V50.578C110.471 49.9686 110.743 49.384 111.226 48.9533C111.711 48.5221 112.367 48.2798 113.051 48.2798Z" fill="white"/>
</mask>
<g mask="url(#mask34_597_932)">
<path d="M110.471 48.2798H115.631V78.2068H110.471V48.2798Z" fill="#EA6012"/>
</g>
</g>
</g>
</g>
</g>
<mask id="mask35_597_932" style="mask-type:luminance" maskUnits="userSpaceOnUse" x="123" y="33" width="6" height="46">
<path d="M123.618 33.7031H128.779V78.2074H123.618V33.7031Z" fill="white"/>
</mask>
<g mask="url(#mask35_597_932)">
<mask id="mask36_597_932" style="mask-type:luminance" maskUnits="userSpaceOnUse" x="123" y="33" width="6" height="46">
<path d="M126.199 33.7031C126.883 33.7031 127.54 33.9454 128.023 34.3761C128.507 34.8073 128.779 35.3914 128.779 36.0008V75.9078C128.779 76.5172 128.507 77.1018 128.023 77.5325C127.54 77.9637 126.883 78.206 126.199 78.206C125.515 78.206 124.858 77.9637 124.374 77.5325C123.89 77.1018 123.618 76.5172 123.618 75.9078V36.0008C123.618 35.3914 123.89 34.8073 124.374 34.3761C124.858 33.9454 125.515 33.7031 126.199 33.7031Z" fill="white"/>
</mask>
<g mask="url(#mask36_597_932)">
<mask id="mask37_597_932" style="mask-type:luminance" maskUnits="userSpaceOnUse" x="123" y="33" width="6" height="46">
<path d="M128.799 33.6479H123.495V78.2736H128.799V33.6479Z" fill="white"/>
</mask>
<g mask="url(#mask37_597_932)">
<mask id="mask38_597_932" style="mask-type:luminance" maskUnits="userSpaceOnUse" x="123" y="33" width="6" height="46">
<path d="M123.618 33.7031H128.779V78.2074H123.618V33.7031Z" fill="white"/>
</mask>
<g mask="url(#mask38_597_932)">
<mask id="mask39_597_932" style="mask-type:luminance" maskUnits="userSpaceOnUse" x="123" y="33" width="6" height="46">
<path d="M126.199 33.7031C126.883 33.7031 127.54 33.9454 128.023 34.3761C128.507 34.8073 128.779 35.3914 128.779 36.0008V75.9078C128.779 76.5172 128.507 77.1018 128.023 77.5325C127.54 77.9637 126.883 78.206 126.199 78.206C125.515 78.206 124.858 77.9637 124.374 77.5325C123.89 77.1018 123.618 76.5172 123.618 75.9078V36.0008C123.618 35.3914 123.89 34.8073 124.374 34.3761C124.858 33.9454 125.515 33.7031 126.199 33.7031Z" fill="white"/>
</mask>
<g mask="url(#mask39_597_932)">
<path d="M123.618 33.7031H128.779V78.2074H123.618V33.7031Z" fill="#EA6012"/>
</g>
</g>
</g>
</g>
</g>
<mask id="mask40_597_932" style="mask-type:luminance" maskUnits="userSpaceOnUse" x="133" y="45" width="6" height="34">
<path d="M133.386 45.2837H138.547V78.2086H133.386V45.2837Z" fill="white"/>
</mask>
<g mask="url(#mask40_597_932)">
<mask id="mask41_597_932" style="mask-type:luminance" maskUnits="userSpaceOnUse" x="133" y="45" width="6" height="34">
<path d="M135.966 45.2837C136.651 45.2837 137.307 45.526 137.791 45.9567C138.274 46.3879 138.547 46.972 138.547 47.5819V75.907C138.547 76.5164 138.274 77.1011 137.791 77.5317C137.307 77.9629 136.651 78.2052 135.966 78.2052C135.282 78.2052 134.626 77.9629 134.141 77.5317C133.658 77.1011 133.386 76.5164 133.386 75.907V47.5819C133.386 46.972 133.658 46.3879 134.141 45.9567C134.626 45.526 135.282 45.2837 135.966 45.2837Z" fill="white"/>
</mask>
<g mask="url(#mask41_597_932)">
<mask id="mask42_597_932" style="mask-type:luminance" maskUnits="userSpaceOnUse" x="133" y="45" width="6" height="34">
<path d="M138.571 45.2075H133.267V78.2728H138.571V45.2075Z" fill="white"/>
</mask>
<g mask="url(#mask42_597_932)">
<mask id="mask43_597_932" style="mask-type:luminance" maskUnits="userSpaceOnUse" x="133" y="45" width="6" height="34">
<path d="M133.386 45.2837H138.547V78.2086H133.386V45.2837Z" fill="white"/>
</mask>
<g mask="url(#mask43_597_932)">
<mask id="mask44_597_932" style="mask-type:luminance" maskUnits="userSpaceOnUse" x="133" y="45" width="6" height="34">
<path d="M135.966 45.2837C136.651 45.2837 137.307 45.526 137.791 45.9567C138.274 46.3879 138.547 46.972 138.547 47.5819V75.907C138.547 76.5164 138.274 77.1011 137.791 77.5317C137.307 77.9629 136.651 78.2052 135.966 78.2052C135.282 78.2052 134.626 77.9629 134.141 77.5317C133.658 77.1011 133.386 76.5164 133.386 75.907V47.5819C133.386 46.972 133.658 46.3879 134.141 45.9567C134.626 45.526 135.282 45.2837 135.966 45.2837Z" fill="white"/>
</mask>
<g mask="url(#mask44_597_932)">
<path d="M133.386 45.2837H138.547V78.2086H133.386V45.2837Z" fill="#EA6012"/>
</g>
</g>
</g>
</g>
</g>
<mask id="mask45_597_932" style="mask-type:luminance" maskUnits="userSpaceOnUse" x="143" y="57" width="6" height="22">
<path d="M143.152 57.6504H148.313V78.206H143.152V57.6504Z" fill="white"/>
</mask>
<g mask="url(#mask45_597_932)">
<mask id="mask46_597_932" style="mask-type:luminance" maskUnits="userSpaceOnUse" x="143" y="57" width="6" height="22">
<path d="M145.732 57.6504C146.417 57.6504 147.073 57.8927 147.557 58.3234C148.041 58.7546 148.313 59.3392 148.313 59.9486V75.9073C148.313 76.5167 148.041 77.1013 147.557 77.532C147.073 77.9632 146.417 78.2055 145.732 78.2055C145.048 78.2055 144.392 77.9632 143.908 77.532C143.424 77.1013 143.152 76.5167 143.152 75.9073V59.9486C143.152 59.3392 143.424 58.7546 143.908 58.3234C144.392 57.8927 145.048 57.6504 145.732 57.6504Z" fill="white"/>
</mask>
<g mask="url(#mask46_597_932)">
<mask id="mask47_597_932" style="mask-type:luminance" maskUnits="userSpaceOnUse" x="143" y="57" width="6" height="22">
<path d="M148.341 57.6382H143.037V78.2729H148.341V57.6382Z" fill="white"/>
</mask>
<g mask="url(#mask47_597_932)">
<mask id="mask48_597_932" style="mask-type:luminance" maskUnits="userSpaceOnUse" x="143" y="57" width="6" height="22">
<path d="M143.152 57.6504H148.313V78.206H143.152V57.6504Z" fill="white"/>
</mask>
<g mask="url(#mask48_597_932)">
<mask id="mask49_597_932" style="mask-type:luminance" maskUnits="userSpaceOnUse" x="143" y="57" width="6" height="22">
<path d="M145.732 57.6504C146.417 57.6504 147.073 57.8927 147.557 58.3234C148.041 58.7546 148.313 59.3392 148.313 59.9486V75.9073C148.313 76.5167 148.041 77.1013 147.557 77.532C147.073 77.9632 146.417 78.2055 145.732 78.2055C145.048 78.2055 144.392 77.9632 143.908 77.532C143.424 77.1013 143.152 76.5167 143.152 75.9073V59.9486C143.152 59.3392 143.424 58.7546 143.908 58.3234C144.392 57.8927 145.048 57.6504 145.732 57.6504Z" fill="white"/>
</mask>
<g mask="url(#mask49_597_932)">
<path d="M143.152 57.6504H148.313V78.206H143.152V57.6504Z" fill="#EA6012"/>
</g>
</g>
</g>
</g>
</g>
<mask id="mask50_597_932" style="mask-type:luminance" maskUnits="userSpaceOnUse" x="50" y="102" width="7" height="15">
<path d="M50.46 102.607H56.0715V116.825H50.46V102.607Z" fill="white"/>
</mask>
<g mask="url(#mask50_597_932)">
<mask id="mask51_597_932" style="mask-type:luminance" maskUnits="userSpaceOnUse" x="50" y="102" width="7" height="15">
<path d="M53.2654 102.607C54.0095 102.607 54.7233 102.849 55.2498 103.28C55.7756 103.711 56.0715 104.295 56.0715 104.905V114.526C56.0715 115.135 55.7756 115.72 55.2498 116.15C54.7233 116.582 54.0095 116.823 53.2654 116.823C52.5214 116.823 51.8076 116.582 51.2817 116.15C50.7552 115.72 50.46 115.135 50.46 114.526V104.905C50.46 104.295 50.7552 103.711 51.2817 103.28C51.8076 102.849 52.5214 102.607 53.2654 102.607Z" fill="white"/>
</mask>
<g mask="url(#mask51_597_932)">
<mask id="mask52_597_932" style="mask-type:luminance" maskUnits="userSpaceOnUse" x="50" y="102" width="7" height="15">
<path d="M56.0965 102.569H50.3291V116.864H56.0965V102.569Z" fill="white"/>
</mask>
<g mask="url(#mask52_597_932)">
<mask id="mask53_597_932" style="mask-type:luminance" maskUnits="userSpaceOnUse" x="50" y="102" width="7" height="15">
<path d="M50.46 102.607H56.0715V116.824H50.46V102.607Z" fill="white"/>
</mask>
<g mask="url(#mask53_597_932)">
<mask id="mask54_597_932" style="mask-type:luminance" maskUnits="userSpaceOnUse" x="50" y="102" width="7" height="15">
<path d="M53.2654 102.607C54.0095 102.607 54.7233 102.849 55.2498 103.28C55.7756 103.711 56.0715 104.295 56.0715 104.905V114.526C56.0715 115.135 55.7756 115.72 55.2498 116.15C54.7233 116.582 54.0095 116.823 53.2654 116.823C52.5214 116.823 51.8076 116.582 51.2817 116.15C50.7552 115.72 50.46 115.135 50.46 114.526V104.905C50.46 104.295 50.7552 103.711 51.2817 103.28C51.8076 102.849 52.5214 102.607 53.2654 102.607Z" fill="white"/>
</mask>
<g mask="url(#mask54_597_932)">
<path d="M50.46 102.607H56.0715V116.825H50.46V102.607Z" fill="#E25E13"/>
</g>
</g>
</g>
</g>
</g>
<mask id="mask55_597_932" style="mask-type:luminance" maskUnits="userSpaceOnUse" x="61" y="102" width="6" height="24">
<path d="M61.1104 102.607H66.7219V125.047H61.1104V102.607Z" fill="white"/>
</mask>
<g mask="url(#mask55_597_932)">
<mask id="mask56_597_932" style="mask-type:luminance" maskUnits="userSpaceOnUse" x="61" y="102" width="6" height="24">
<path d="M63.9158 102.607C64.6599 102.607 65.3737 102.849 65.9001 103.28C66.426 103.711 66.7219 104.295 66.7219 104.905V122.74C66.7219 123.349 66.426 123.934 65.9001 124.365C65.3737 124.796 64.6599 125.038 63.9158 125.038C63.1718 125.038 62.4579 124.796 61.9321 124.365C61.4056 123.934 61.1104 123.349 61.1104 122.74V104.905C61.1104 104.295 61.4056 103.711 61.9321 103.28C62.4579 102.849 63.1718 102.607 63.9158 102.607Z" fill="white"/>
</mask>
<g mask="url(#mask56_597_932)">
<mask id="mask57_597_932" style="mask-type:luminance" maskUnits="userSpaceOnUse" x="61" y="102" width="6" height="24">
<path d="M66.8729 102.569H61.1055V125.068H66.8729V102.569Z" fill="white"/>
</mask>
<g mask="url(#mask57_597_932)">
<mask id="mask58_597_932" style="mask-type:luminance" maskUnits="userSpaceOnUse" x="61" y="102" width="6" height="24">
<path d="M61.1104 102.607H66.7219V125.047H61.1104V102.607Z" fill="white"/>
</mask>
<g mask="url(#mask58_597_932)">
<mask id="mask59_597_932" style="mask-type:luminance" maskUnits="userSpaceOnUse" x="61" y="102" width="6" height="24">
<path d="M63.9158 102.607C64.6599 102.607 65.3737 102.849 65.9001 103.28C66.426 103.711 66.7219 104.295 66.7219 104.905V122.74C66.7219 123.349 66.426 123.934 65.9001 124.365C65.3737 124.796 64.6599 125.038 63.9158 125.038C63.1718 125.038 62.4579 124.796 61.9321 124.365C61.4056 123.934 61.1104 123.349 61.1104 122.74V104.905C61.1104 104.295 61.4056 103.711 61.9321 103.28C62.4579 102.849 63.1718 102.607 63.9158 102.607Z" fill="white"/>
</mask>
<g mask="url(#mask59_597_932)">
<path d="M61.1104 102.607H66.7219V125.03H61.1104V102.607Z" fill="#E25E13"/>
</g>
</g>
</g>
</g>
</g>
<mask id="mask60_597_932" style="mask-type:luminance" maskUnits="userSpaceOnUse" x="71" y="102" width="7" height="16">
<path d="M71.7314 102.607H77.343V117.544H71.7314V102.607Z" fill="white"/>
</mask>
<g mask="url(#mask60_597_932)">
<mask id="mask61_597_932" style="mask-type:luminance" maskUnits="userSpaceOnUse" x="71" y="102" width="7" height="16">
<path d="M74.5369 102.607C75.281 102.607 75.9948 102.849 76.5206 103.28C77.0471 103.711 77.343 104.295 77.343 104.905V115.23C77.343 115.839 77.0471 116.424 76.5206 116.854C75.9948 117.286 75.281 117.528 74.5369 117.528C73.7929 117.528 73.079 117.286 72.5532 116.854C72.0267 116.424 71.7314 115.839 71.7314 115.23V104.905C71.7314 104.295 72.0267 103.711 72.5532 103.28C73.079 102.849 73.7929 102.607 74.5369 102.607Z" fill="white"/>
</mask>
<g mask="url(#mask61_597_932)">
<mask id="mask62_597_932" style="mask-type:luminance" maskUnits="userSpaceOnUse" x="71" y="102" width="7" height="16">
<path d="M77.3461 102.569H71.7305V117.61H77.3461V102.569Z" fill="white"/>
</mask>
<g mask="url(#mask62_597_932)">
<mask id="mask63_597_932" style="mask-type:luminance" maskUnits="userSpaceOnUse" x="71" y="102" width="7" height="16">
<path d="M71.7324 102.607H77.3439V117.54H71.7324V102.607Z" fill="white"/>
</mask>
<g mask="url(#mask63_597_932)">
<mask id="mask64_597_932" style="mask-type:luminance" maskUnits="userSpaceOnUse" x="71" y="102" width="7" height="16">
<path d="M74.5379 102.607C75.2819 102.607 75.9957 102.849 76.5216 103.28C77.0481 103.711 77.3439 104.295 77.3439 104.905V115.23C77.3439 115.839 77.0481 116.424 76.5216 116.854C75.9957 117.286 75.2819 117.528 74.5379 117.528C73.7938 117.528 73.08 117.286 72.5541 116.854C72.0277 116.424 71.7324 115.839 71.7324 115.23V104.905C71.7324 104.295 72.0277 103.711 72.5541 103.28C73.08 102.849 73.7938 102.607 74.5379 102.607Z" fill="white"/>
</mask>
<g mask="url(#mask64_597_932)">
<path d="M71.7324 102.607H77.3439V117.526H71.7324V102.607Z" fill="#E25E13"/>
</g>
</g>
</g>
</g>
</g>
<mask id="mask65_597_932" style="mask-type:luminance" maskUnits="userSpaceOnUse" x="88" y="102" width="7" height="30">
<path d="M88.9932 102.607H94.6047V131.851H88.9932V102.607Z" fill="white"/>
</mask>
<g mask="url(#mask65_597_932)">
<mask id="mask66_597_932" style="mask-type:luminance" maskUnits="userSpaceOnUse" x="88" y="102" width="7" height="30">
<path d="M91.7992 102.607C92.5433 102.607 93.2571 102.849 93.783 103.28C94.3094 103.711 94.6047 104.295 94.6047 104.905V129.546C94.6047 130.156 94.3094 130.74 93.783 131.171C93.2571 131.602 92.5433 131.844 91.7992 131.844C91.0552 131.844 90.3413 131.602 89.8149 131.171C89.289 130.74 88.9932 130.156 88.9932 129.546V104.905C88.9932 104.295 89.289 103.711 89.8149 103.28C90.3413 102.849 91.0552 102.607 91.7992 102.607Z" fill="white"/>
</mask>
<g mask="url(#mask66_597_932)">
<mask id="mask67_597_932" style="mask-type:luminance" maskUnits="userSpaceOnUse" x="88" y="102" width="7" height="30">
<path d="M94.6483 102.569H88.8809V131.905H94.6483V102.569Z" fill="white"/>
</mask>
<g mask="url(#mask67_597_932)">
<mask id="mask68_597_932" style="mask-type:luminance" maskUnits="userSpaceOnUse" x="88" y="102" width="7" height="30">
<path d="M88.9922 102.607H94.6037V131.851H88.9922V102.607Z" fill="white"/>
</mask>
<g mask="url(#mask68_597_932)">
<mask id="mask69_597_932" style="mask-type:luminance" maskUnits="userSpaceOnUse" x="88" y="102" width="7" height="30">
<path d="M91.7982 102.607C92.5423 102.607 93.2561 102.849 93.782 103.28C94.3084 103.711 94.6037 104.295 94.6037 104.905V129.546C94.6037 130.156 94.3084 130.74 93.782 131.171C93.2561 131.602 92.5423 131.844 91.7982 131.844C91.0542 131.844 90.3404 131.602 89.8139 131.171C89.288 130.74 88.9922 130.156 88.9922 129.546V104.905C88.9922 104.295 89.288 103.711 89.8139 103.28C90.3404 102.849 91.0542 102.607 91.7982 102.607Z" fill="white"/>
</mask>
<g mask="url(#mask69_597_932)">
<path d="M88.9922 102.607H94.6037V131.851H88.9922V102.607Z" fill="#E25E13"/>
</g>
</g>
</g>
</g>
</g>
<mask id="mask70_597_932" style="mask-type:luminance" maskUnits="userSpaceOnUse" x="99" y="102" width="7" height="38">
<path d="M99.6143 102.909H105.226V139.317H99.6143V102.909Z" fill="white"/>
</mask>
<g mask="url(#mask70_597_932)">
<mask id="mask71_597_932" style="mask-type:luminance" maskUnits="userSpaceOnUse" x="99" y="102" width="7" height="38">
<path d="M102.42 102.909C103.164 102.909 103.878 103.151 104.404 103.582C104.93 104.013 105.226 104.597 105.226 105.207V137.006C105.226 137.616 104.93 138.2 104.404 138.631C103.878 139.062 103.164 139.304 102.42 139.304C101.676 139.304 100.962 139.062 100.436 138.631C99.9101 138.2 99.6143 137.616 99.6143 137.006V105.207C99.6143 104.597 99.9101 104.013 100.436 103.582C100.962 103.151 101.676 102.909 102.42 102.909Z" fill="white"/>
</mask>
<g mask="url(#mask71_597_932)">
<mask id="mask72_597_932" style="mask-type:luminance" maskUnits="userSpaceOnUse" x="99" y="102" width="7" height="38">
<path d="M105.272 102.817H99.5049V139.363H105.272V102.817Z" fill="white"/>
</mask>
<g mask="url(#mask72_597_932)">
<mask id="mask73_597_932" style="mask-type:luminance" maskUnits="userSpaceOnUse" x="99" y="102" width="7" height="38">
<path d="M99.6143 102.909H105.226V139.317H99.6143V102.909Z" fill="white"/>
</mask>
<g mask="url(#mask73_597_932)">
<mask id="mask74_597_932" style="mask-type:luminance" maskUnits="userSpaceOnUse" x="99" y="102" width="7" height="38">
<path d="M102.421 102.909C103.165 102.909 103.879 103.151 104.405 103.582C104.931 104.013 105.227 104.597 105.227 105.207V137.006C105.227 137.616 104.931 138.2 104.405 138.631C103.879 139.062 103.165 139.304 102.421 139.304C101.677 139.304 100.963 139.062 100.437 138.631C99.9111 138.2 99.6152 137.616 99.6152 137.006V105.207C99.6152 104.597 99.9111 104.013 100.437 103.582C100.963 103.151 101.677 102.909 102.421 102.909Z" fill="white"/>
</mask>
<g mask="url(#mask74_597_932)">
<path d="M99.6152 102.909H105.227V139.299H99.6152V102.909Z" fill="#E25E13"/>
</g>
</g>
</g>
</g>
</g>
<mask id="mask75_597_932" style="mask-type:luminance" maskUnits="userSpaceOnUse" x="110" y="102" width="6" height="29">
<path d="M110.233 102.909H115.845V130.287H110.233V102.909Z" fill="white"/>
</mask>
<g mask="url(#mask75_597_932)">
<mask id="mask76_597_932" style="mask-type:luminance" maskUnits="userSpaceOnUse" x="110" y="102" width="6" height="29">
<path d="M113.039 102.909C113.784 102.909 114.497 103.151 115.023 103.582C115.549 104.013 115.845 104.597 115.845 105.207V127.971C115.845 128.58 115.549 129.164 115.023 129.596C114.497 130.026 113.784 130.269 113.039 130.269C112.295 130.269 111.582 130.026 111.055 129.596C110.529 129.164 110.233 128.58 110.233 127.971V105.207C110.233 104.597 110.529 104.013 111.055 103.582C111.582 103.151 112.295 102.909 113.039 102.909Z" fill="white"/>
</mask>
<g mask="url(#mask76_597_932)">
<mask id="mask77_597_932" style="mask-type:luminance" maskUnits="userSpaceOnUse" x="110" y="102" width="6" height="29">
<path d="M115.895 102.817H110.128V130.288H115.895V102.817Z" fill="white"/>
</mask>
<g mask="url(#mask77_597_932)">
<mask id="mask78_597_932" style="mask-type:luminance" maskUnits="userSpaceOnUse" x="110" y="102" width="6" height="29">
<path d="M110.232 102.909H115.844V130.278H110.232V102.909Z" fill="white"/>
</mask>
<g mask="url(#mask78_597_932)">
<mask id="mask79_597_932" style="mask-type:luminance" maskUnits="userSpaceOnUse" x="110" y="102" width="6" height="29">
<path d="M113.038 102.909C113.783 102.909 114.496 103.151 115.022 103.582C115.548 104.013 115.844 104.597 115.844 105.207V127.971C115.844 128.58 115.548 129.164 115.022 129.596C114.496 130.026 113.783 130.269 113.038 130.269C112.294 130.269 111.581 130.026 111.054 129.596C110.528 129.164 110.232 128.58 110.232 127.971V105.207C110.232 104.597 110.528 104.013 111.054 103.582C111.581 103.151 112.294 102.909 113.038 102.909Z" fill="white"/>
</mask>
<g mask="url(#mask79_597_932)">
<path d="M110.232 102.909H115.844V130.269H110.232V102.909Z" fill="#E25E13"/>
</g>
</g>
</g>
</g>
</g>
<mask id="mask80_597_932" style="mask-type:luminance" maskUnits="userSpaceOnUse" x="124" y="102" width="7" height="42">
<path d="M124.529 102.909H130.141V143.769H124.529V102.909Z" fill="white"/>
</mask>
<g mask="url(#mask80_597_932)">
<mask id="mask81_597_932" style="mask-type:luminance" maskUnits="userSpaceOnUse" x="124" y="102" width="7" height="42">
<path d="M127.335 102.909C128.079 102.909 128.793 103.151 129.319 103.582C129.846 104.013 130.141 104.597 130.141 105.207V141.466C130.141 142.075 129.846 142.66 129.319 143.09C128.793 143.521 128.079 143.763 127.335 143.763C126.591 143.763 125.877 143.521 125.351 143.09C124.825 142.66 124.529 142.075 124.529 141.466V105.207C124.529 104.597 124.825 104.013 125.351 103.582C125.877 103.151 126.591 102.909 127.335 102.909Z" fill="white"/>
</mask>
<g mask="url(#mask81_597_932)">
<mask id="mask82_597_932" style="mask-type:luminance" maskUnits="userSpaceOnUse" x="124" y="102" width="7" height="42">
<path d="M130.164 102.817H124.396V143.838H130.164V102.817Z" fill="white"/>
</mask>
<g mask="url(#mask82_597_932)">
<mask id="mask83_597_932" style="mask-type:luminance" maskUnits="userSpaceOnUse" x="124" y="102" width="7" height="42">
<path d="M124.53 102.909H130.142V143.769H124.53V102.909Z" fill="white"/>
</mask>
<g mask="url(#mask83_597_932)">
<mask id="mask84_597_932" style="mask-type:luminance" maskUnits="userSpaceOnUse" x="124" y="102" width="7" height="42">
<path d="M127.336 102.909C128.08 102.909 128.794 103.151 129.32 103.582C129.847 104.013 130.142 104.597 130.142 105.207V141.466C130.142 142.075 129.847 142.66 129.32 143.09C128.794 143.521 128.08 143.763 127.336 143.763C126.592 143.763 125.878 143.521 125.352 143.09C124.826 142.66 124.53 142.075 124.53 141.466V105.207C124.53 104.597 124.826 104.013 125.352 103.582C125.878 103.151 126.592 102.909 127.336 102.909Z" fill="white"/>
</mask>
<g mask="url(#mask84_597_932)">
<path d="M124.53 102.909H130.142V143.769H124.53V102.909Z" fill="#E25E13"/>
</g>
</g>
</g>
</g>
</g>
<mask id="mask85_597_932" style="mask-type:luminance" maskUnits="userSpaceOnUse" x="135" y="102" width="6" height="30">
<path d="M135.149 102.909H140.761V131.848H135.149V102.909Z" fill="white"/>
</mask>
<g mask="url(#mask85_597_932)">
<mask id="mask86_597_932" style="mask-type:luminance" maskUnits="userSpaceOnUse" x="135" y="102" width="6" height="30">
<path d="M137.955 102.909C138.7 102.909 139.413 103.151 139.939 103.582C140.465 104.013 140.761 104.597 140.761 105.207V129.546C140.761 130.155 140.465 130.74 139.939 131.171C139.413 131.602 138.7 131.844 137.955 131.844C137.211 131.844 136.498 131.602 135.971 131.171C135.445 130.74 135.149 130.155 135.149 129.546V105.207C135.149 104.597 135.445 104.013 135.971 103.582C136.498 103.151 137.211 102.909 137.955 102.909Z" fill="white"/>
</mask>
<g mask="url(#mask86_597_932)">
<mask id="mask87_597_932" style="mask-type:luminance" maskUnits="userSpaceOnUse" x="135" y="102" width="6" height="30">
<path d="M140.787 102.817H135.02V131.904H140.787V102.817Z" fill="white"/>
</mask>
<g mask="url(#mask87_597_932)">
<mask id="mask88_597_932" style="mask-type:luminance" maskUnits="userSpaceOnUse" x="135" y="102" width="6" height="30">
<path d="M135.149 102.909H140.761V131.848H135.149V102.909Z" fill="white"/>
</mask>
<g mask="url(#mask88_597_932)">
<mask id="mask89_597_932" style="mask-type:luminance" maskUnits="userSpaceOnUse" x="135" y="102" width="6" height="30">
<path d="M137.954 102.909C138.699 102.909 139.412 103.151 139.938 103.582C140.464 104.013 140.76 104.597 140.76 105.207V129.546C140.76 130.155 140.464 130.74 139.938 131.171C139.412 131.602 138.699 131.844 137.954 131.844C137.21 131.844 136.497 131.602 135.97 131.171C135.444 130.74 135.148 130.155 135.148 129.546V105.207C135.148 104.597 135.444 104.013 135.97 103.582C136.497 103.151 137.21 102.909 137.954 102.909Z" fill="white"/>
</mask>
<g mask="url(#mask89_597_932)">
<path d="M135.148 102.909H140.76V131.848H135.148V102.909Z" fill="#E25E13"/>
</g>
</g>
</g>
</g>
</g>
<mask id="mask90_597_932" style="mask-type:luminance" maskUnits="userSpaceOnUse" x="145" y="103" width="7" height="21">
<path d="M145.769 103.06H151.38V123.346H145.769V103.06Z" fill="white"/>
</mask>
<g mask="url(#mask90_597_932)">
<mask id="mask91_597_932" style="mask-type:luminance" maskUnits="userSpaceOnUse" x="145" y="103" width="7" height="21">
<path d="M148.576 103.06C149.321 103.06 150.034 103.302 150.56 103.733C151.086 104.164 151.382 104.748 151.382 105.358V121.038C151.382 121.648 151.086 122.232 150.56 122.663C150.034 123.094 149.321 123.336 148.576 123.336C147.832 123.336 147.119 123.094 146.592 122.663C146.066 122.232 145.771 121.648 145.771 121.038V105.358C145.771 104.748 146.066 104.164 146.592 103.733C147.119 103.302 147.832 103.06 148.576 103.06Z" fill="white"/>
</mask>
<g mask="url(#mask91_597_932)">
<mask id="mask92_597_932" style="mask-type:luminance" maskUnits="userSpaceOnUse" x="145" y="102" width="7" height="22">
<path d="M151.411 102.941H145.644V123.451H151.411V102.941Z" fill="white"/>
</mask>
<g mask="url(#mask92_597_932)">
<mask id="mask93_597_932" style="mask-type:luminance" maskUnits="userSpaceOnUse" x="145" y="103" width="7" height="21">
<path d="M145.77 103.06H151.381V123.346H145.77V103.06Z" fill="white"/>
</mask>
<g mask="url(#mask93_597_932)">
<mask id="mask94_597_932" style="mask-type:luminance" maskUnits="userSpaceOnUse" x="145" y="103" width="7" height="21">
<path d="M148.576 103.06C149.321 103.06 150.034 103.302 150.56 103.733C151.086 104.164 151.382 104.748 151.382 105.358V121.038C151.382 121.648 151.086 122.232 150.56 122.663C150.034 123.094 149.321 123.336 148.576 123.336C147.832 123.336 147.119 123.094 146.592 122.663C146.066 122.232 145.771 121.648 145.771 121.038V105.358C145.771 104.748 146.066 104.164 146.592 103.733C147.119 103.302 147.832 103.06 148.576 103.06Z" fill="white"/>
</mask>
<g mask="url(#mask94_597_932)">
<path d="M145.771 103.06H151.382V123.328H145.771V103.06Z" fill="#E25E13"/>
</g>
</g>
</g>
</g>
</g>
<path d="M62.9252 86.5227L58.4934 86.7955C58.4176 86.4167 58.2547 86.0758 58.0047 85.7727C57.7547 85.4621 57.4252 85.2159 57.0161 85.0341C56.6146 84.8447 56.1335 84.75 55.5729 84.75C54.8229 84.75 54.1903 84.9091 53.6752 85.2273C53.16 85.5379 52.9024 85.9545 52.9024 86.4773C52.9024 86.8939 53.0691 87.2462 53.4024 87.5341C53.7358 87.822 54.3077 88.053 55.1184 88.2273L58.2774 88.8636C59.9744 89.2121 61.2396 89.7727 62.0729 90.5455C62.9062 91.3182 63.3229 92.3333 63.3229 93.5909C63.3229 94.7348 62.9858 95.7386 62.3115 96.6023C61.6449 97.4659 60.7282 98.1402 59.5615 98.625C58.4024 99.1023 57.0653 99.3409 55.5502 99.3409C53.2396 99.3409 51.3987 98.8598 50.0274 97.8977C48.6638 96.928 47.8646 95.6098 47.6297 93.9432L52.3911 93.6932C52.535 94.3977 52.8835 94.9356 53.4365 95.3068C53.9896 95.6705 54.6979 95.8523 55.5615 95.8523C56.41 95.8523 57.0918 95.6894 57.607 95.3636C58.1297 95.0303 58.3949 94.6023 58.4024 94.0795C58.3949 93.6402 58.2093 93.2803 57.8456 93C57.482 92.7121 56.9214 92.4924 56.1638 92.3409L53.1411 91.7386C51.4365 91.3977 50.1676 90.8068 49.3343 89.9659C48.5085 89.125 48.0956 88.053 48.0956 86.75C48.0956 85.6288 48.3987 84.6629 49.0047 83.8523C49.6184 83.0417 50.4782 82.4167 51.5843 81.9773C52.6979 81.5379 54.0009 81.3182 55.4934 81.3182C57.6979 81.3182 59.4327 81.7841 60.6979 82.7159C61.9706 83.6477 62.7131 84.9167 62.9252 86.5227ZM74.8976 99.3409C73.1324 99.3409 71.6059 98.9659 70.318 98.2159C69.0377 97.4583 68.0491 96.4053 67.3521 95.0568C66.6551 93.7008 66.3066 92.1288 66.3066 90.3409C66.3066 88.5379 66.6551 86.9621 67.3521 85.6136C68.0491 84.2576 69.0377 83.2045 70.318 82.4545C71.6059 81.697 73.1324 81.3182 74.8976 81.3182C76.6627 81.3182 78.1854 81.697 79.4657 82.4545C80.7536 83.2045 81.746 84.2576 82.443 85.6136C83.14 86.9621 83.4885 88.5379 83.4885 90.3409C83.4885 92.1288 83.14 93.7008 82.443 95.0568C81.746 96.4053 80.7536 97.4583 79.4657 98.2159C78.1854 98.9659 76.6627 99.3409 74.8976 99.3409ZM74.9203 95.5909C75.7233 95.5909 76.3938 95.3636 76.9316 94.9091C77.4695 94.447 77.8748 93.8182 78.1476 93.0227C78.4279 92.2273 78.568 91.322 78.568 90.3068C78.568 89.2917 78.4279 88.3864 78.1476 87.5909C77.8748 86.7955 77.4695 86.1667 76.9316 85.7045C76.3938 85.2424 75.7233 85.0114 74.9203 85.0114C74.1097 85.0114 73.4279 85.2424 72.8748 85.7045C72.3294 86.1667 71.9165 86.7955 71.6362 87.5909C71.3635 88.3864 71.2271 89.2917 71.2271 90.3068C71.2271 91.322 71.3635 92.2273 71.6362 93.0227C71.9165 93.8182 72.3294 94.447 72.8748 94.9091C73.4279 95.3636 74.1097 95.5909 74.9203 95.5909ZM92.1171 88.9091V99H87.2762V81.5455H91.8898V84.625H92.0944C92.4807 83.6098 93.1285 82.8068 94.0376 82.2159C94.9466 81.6174 96.0489 81.3182 97.3444 81.3182C98.5565 81.3182 99.6133 81.5833 100.515 82.1136C101.416 82.6439 102.117 83.4015 102.617 84.3864C103.117 85.3636 103.367 86.5303 103.367 87.8864V99H98.5262V88.75C98.5338 87.6818 98.261 86.8485 97.708 86.25C97.155 85.6439 96.3936 85.3409 95.4239 85.3409C94.7724 85.3409 94.1966 85.4811 93.6966 85.7614C93.2042 86.0417 92.8179 86.4508 92.5376 86.9886C92.2648 87.5189 92.1247 88.1591 92.1171 88.9091ZM112.8 99.3295C111.686 99.3295 110.694 99.1364 109.822 98.75C108.951 98.3561 108.262 97.7765 107.754 97.0114C107.254 96.2386 107.004 95.2765 107.004 94.125C107.004 93.1553 107.182 92.3409 107.538 91.6818C107.894 91.0227 108.379 90.4924 108.993 90.0909C109.607 89.6894 110.304 89.3864 111.084 89.1818C111.872 88.9773 112.697 88.8333 113.561 88.75C114.576 88.6439 115.394 88.5455 116.016 88.4545C116.637 88.3561 117.088 88.2121 117.368 88.0227C117.648 87.8333 117.788 87.553 117.788 87.1818V87.1136C117.788 86.3939 117.561 85.8371 117.107 85.4432C116.66 85.0492 116.023 84.8523 115.197 84.8523C114.326 84.8523 113.633 85.0455 113.118 85.4318C112.603 85.8106 112.262 86.2879 112.095 86.8636L107.618 86.5C107.845 85.4394 108.292 84.5227 108.959 83.75C109.625 82.9697 110.485 82.3712 111.538 81.9545C112.599 81.5303 113.826 81.3182 115.22 81.3182C116.19 81.3182 117.118 81.4318 118.004 81.6591C118.898 81.8864 119.69 82.2386 120.379 82.7159C121.076 83.1932 121.625 83.8068 122.027 84.5568C122.429 85.2992 122.629 86.1894 122.629 87.2273V99H118.038V96.5795H117.902C117.622 97.125 117.247 97.6061 116.777 98.0227C116.307 98.4318 115.743 98.7538 115.084 98.9886C114.425 99.2159 113.663 99.3295 112.8 99.3295ZM114.186 95.9886C114.898 95.9886 115.527 95.8485 116.072 95.5682C116.618 95.2803 117.046 94.8939 117.357 94.4091C117.667 93.9242 117.822 93.375 117.822 92.7614V90.9091C117.671 91.0076 117.463 91.0985 117.197 91.1818C116.94 91.2576 116.648 91.3295 116.322 91.3977C115.997 91.4583 115.671 91.5152 115.345 91.5682C115.019 91.6136 114.724 91.6553 114.459 91.6932C113.891 91.7765 113.394 91.9091 112.97 92.0909C112.546 92.2727 112.216 92.5189 111.982 92.8295C111.747 93.1326 111.629 93.5114 111.629 93.9659C111.629 94.625 111.868 95.1288 112.345 95.4773C112.83 95.8182 113.444 95.9886 114.186 95.9886ZM127.025 99V81.5455H131.718V84.5909H131.9C132.218 83.5076 132.752 82.6894 133.502 82.1364C134.252 81.5758 135.116 81.2955 136.093 81.2955C136.336 81.2955 136.597 81.3106 136.877 81.3409C137.158 81.3712 137.404 81.4129 137.616 81.4659V85.7614C137.389 85.6932 137.074 85.6326 136.673 85.5795C136.271 85.5265 135.904 85.5 135.57 85.5C134.858 85.5 134.222 85.6553 133.661 85.9659C133.108 86.2689 132.669 86.6932 132.343 87.2386C132.025 87.7841 131.866 88.4129 131.866 89.125V99H127.025ZM145.236 99.3295C144.122 99.3295 143.13 99.1364 142.259 98.75C141.387 98.3561 140.698 97.7765 140.191 97.0114C139.691 96.2386 139.441 95.2765 139.441 94.125C139.441 93.1553 139.619 92.3409 139.975 91.6818C140.331 91.0227 140.816 90.4924 141.429 90.0909C142.043 89.6894 142.74 89.3864 143.52 89.1818C144.308 88.9773 145.134 88.8333 145.997 88.75C147.012 88.6439 147.831 88.5455 148.452 88.4545C149.073 88.3561 149.524 88.2121 149.804 88.0227C150.084 87.8333 150.225 87.553 150.225 87.1818V87.1136C150.225 86.3939 149.997 85.8371 149.543 85.4432C149.096 85.0492 148.459 84.8523 147.634 84.8523C146.762 84.8523 146.069 85.0455 145.554 85.4318C145.039 85.8106 144.698 86.2879 144.531 86.8636L140.054 86.5C140.281 85.4394 140.728 84.5227 141.395 83.75C142.062 82.9697 142.922 82.3712 143.975 81.9545C145.035 81.5303 146.262 81.3182 147.656 81.3182C148.626 81.3182 149.554 81.4318 150.441 81.6591C151.334 81.8864 152.126 82.2386 152.816 82.7159C153.512 83.1932 154.062 83.8068 154.463 84.5568C154.865 85.2992 155.066 86.1894 155.066 87.2273V99H150.475V96.5795H150.338C150.058 97.125 149.683 97.6061 149.213 98.0227C148.744 98.4318 148.179 98.7538 147.52 98.9886C146.861 99.2159 146.1 99.3295 145.236 99.3295ZM146.622 95.9886C147.334 95.9886 147.963 95.8485 148.509 95.5682C149.054 95.2803 149.482 94.8939 149.793 94.4091C150.103 93.9242 150.259 93.375 150.259 92.7614V90.9091C150.107 91.0076 149.899 91.0985 149.634 91.1818C149.376 91.2576 149.084 91.3295 148.759 91.3977C148.433 91.4583 148.107 91.5152 147.781 91.5682C147.456 91.6136 147.16 91.6553 146.895 91.6932C146.327 91.7765 145.831 91.9091 145.406 92.0909C144.982 92.2727 144.653 92.5189 144.418 92.8295C144.183 93.1326 144.066 93.5114 144.066 93.9659C144.066 94.625 144.304 95.1288 144.781 95.4773C145.266 95.8182 145.88 95.9886 146.622 95.9886Z" fill="white"/>
</svg>
