<svg width="201" height="179" viewBox="0 0 201 179" fill="none" xmlns="http://www.w3.org/2000/svg">
<mask id="mask0_430_501" style="mask-type:luminance" maskUnits="userSpaceOnUse" x="46" y="69" width="6" height="9">
<path d="M46.2549 69.4053H51.4156V77.7711H46.2549V69.4053Z" fill="white"/>
</mask>
<g mask="url(#mask0_430_501)">
<mask id="mask1_430_501" style="mask-type:luminance" maskUnits="userSpaceOnUse" x="46" y="69" width="6" height="9">
<path d="M48.835 69.4053C49.5198 69.4053 50.1758 69.6471 50.6599 70.0783C51.1436 70.509 51.4156 71.0936 51.4156 71.703V75.4564C51.4156 76.0663 51.1436 76.6504 50.6599 77.0816C50.1758 77.5123 49.5198 77.7546 48.835 77.7546C48.1507 77.7546 47.4948 77.5123 47.0106 77.0816C46.527 76.6504 46.2549 76.0663 46.2549 75.4564V71.703C46.2549 71.0936 46.527 70.509 47.0106 70.0783C47.4948 69.6471 48.1507 69.4053 48.835 69.4053Z" fill="white"/>
</mask>
<g mask="url(#mask1_430_501)">
<mask id="mask2_430_501" style="mask-type:luminance" maskUnits="userSpaceOnUse" x="46" y="69" width="6" height="9">
<path d="M51.4692 69.3228H46.165V77.7755H51.4692V69.3228Z" fill="white"/>
</mask>
<g mask="url(#mask2_430_501)">
<mask id="mask3_430_501" style="mask-type:luminance" maskUnits="userSpaceOnUse" x="46" y="69" width="6" height="9">
<path d="M46.2549 69.4053H51.4156V77.7556H46.2549V69.4053Z" fill="white"/>
</mask>
<g mask="url(#mask3_430_501)">
<mask id="mask4_430_501" style="mask-type:luminance" maskUnits="userSpaceOnUse" x="46" y="69" width="6" height="9">
<path d="M48.835 69.4053C49.5198 69.4053 50.1758 69.6471 50.6599 70.0783C51.1436 70.509 51.4156 71.0936 51.4156 71.703V75.4564C51.4156 76.0663 51.1436 76.6504 50.6599 77.0816C50.1758 77.5123 49.5198 77.7546 48.835 77.7546C48.1507 77.7546 47.4948 77.5123 47.0106 77.0816C46.527 76.6504 46.2549 76.0663 46.2549 75.4564V71.703C46.2549 71.0936 46.527 70.509 47.0106 70.0783C47.4948 69.6471 48.1507 69.4053 48.835 69.4053Z" fill="white"/>
</mask>
<g mask="url(#mask4_430_501)">
<path d="M46.2549 69.4053H51.4156V77.7532H46.2549V69.4053Z" fill="#EA6012"/>
</g>
</g>
</g>
</g>
</g>
<mask id="mask5_430_501" style="mask-type:luminance" maskUnits="userSpaceOnUse" x="55" y="63" width="6" height="15">
<path d="M55.499 63.043H60.6598V77.764H55.499V63.043Z" fill="white"/>
</mask>
<g mask="url(#mask5_430_501)">
<mask id="mask6_430_501" style="mask-type:luminance" maskUnits="userSpaceOnUse" x="55" y="63" width="6" height="15">
<path d="M58.0791 63.043C58.7634 63.043 59.4199 63.2848 59.9041 63.716C60.3877 64.1467 60.6598 64.7313 60.6598 65.3407V75.457C60.6598 76.0669 60.3877 76.651 59.9041 77.0822C59.4199 77.5129 58.7634 77.7552 58.0791 77.7552C57.3948 77.7552 56.7384 77.5129 56.2547 77.0822C55.7706 76.651 55.499 76.0669 55.499 75.457V65.3407C55.499 64.7313 55.7706 64.1467 56.2547 63.716C56.7384 63.2848 57.3948 63.043 58.0791 63.043Z" fill="white"/>
</mask>
<g mask="url(#mask6_430_501)">
<mask id="mask7_430_501" style="mask-type:luminance" maskUnits="userSpaceOnUse" x="55" y="62" width="6" height="16">
<path d="M60.6831 62.9839H55.3789V77.7762H60.6831V62.9839Z" fill="white"/>
</mask>
<g mask="url(#mask7_430_501)">
<mask id="mask8_430_501" style="mask-type:luminance" maskUnits="userSpaceOnUse" x="55" y="63" width="6" height="15">
<path d="M55.499 63.043H60.6598V77.7562H55.499V63.043Z" fill="white"/>
</mask>
<g mask="url(#mask8_430_501)">
<mask id="mask9_430_501" style="mask-type:luminance" maskUnits="userSpaceOnUse" x="55" y="63" width="6" height="15">
<path d="M58.0791 63.043C58.7634 63.043 59.4199 63.2848 59.9041 63.716C60.3877 64.1467 60.6598 64.7313 60.6598 65.3407V75.457C60.6598 76.0669 60.3877 76.651 59.9041 77.0822C59.4199 77.5129 58.7634 77.7552 58.0791 77.7552C57.3948 77.7552 56.7384 77.5129 56.2547 77.0822C55.7706 76.651 55.499 76.0669 55.499 75.457V65.3407C55.499 64.7313 55.7706 64.1467 56.2547 63.716C56.7384 63.2848 57.3948 63.043 58.0791 63.043Z" fill="white"/>
</mask>
<g mask="url(#mask9_430_501)">
<path d="M55.499 63.043H60.6598V77.764H55.499V63.043Z" fill="#EA6012"/>
</g>
</g>
</g>
</g>
</g>
<mask id="mask10_430_501" style="mask-type:luminance" maskUnits="userSpaceOnUse" x="65" y="55" width="6" height="23">
<path d="M65.2939 55.8125H70.4547V77.768H65.2939V55.8125Z" fill="white"/>
</mask>
<g mask="url(#mask10_430_501)">
<mask id="mask11_430_501" style="mask-type:luminance" maskUnits="userSpaceOnUse" x="65" y="55" width="6" height="23">
<path d="M67.8741 55.8125C68.5583 55.8125 69.2148 56.0543 69.699 56.4855C70.1826 56.9162 70.4547 57.5008 70.4547 58.1102V75.4571C70.4547 76.067 70.1826 76.6512 69.699 77.0823C69.2148 77.513 68.5583 77.7553 67.8741 77.7553C67.1898 77.7553 66.5333 77.513 66.0497 77.0823C65.5655 76.6512 65.2939 76.067 65.2939 75.4571V58.1102C65.2939 57.5008 65.5655 56.9162 66.0497 56.4855C66.5333 56.0543 67.1898 55.8125 67.8741 55.8125Z" fill="white"/>
</mask>
<g mask="url(#mask11_430_501)">
<mask id="mask12_430_501" style="mask-type:luminance" maskUnits="userSpaceOnUse" x="65" y="55" width="6" height="23">
<path d="M70.5942 55.7744H65.29V77.7765H70.5942V55.7744Z" fill="white"/>
</mask>
<g mask="url(#mask12_430_501)">
<mask id="mask13_430_501" style="mask-type:luminance" maskUnits="userSpaceOnUse" x="65" y="55" width="6" height="23">
<path d="M65.2939 55.8125H70.4547V77.7563H65.2939V55.8125Z" fill="white"/>
</mask>
<g mask="url(#mask13_430_501)">
<mask id="mask14_430_501" style="mask-type:luminance" maskUnits="userSpaceOnUse" x="65" y="55" width="6" height="23">
<path d="M67.8741 55.8125C68.5583 55.8125 69.2148 56.0543 69.699 56.4855C70.1826 56.9162 70.4547 57.5008 70.4547 58.1102V75.4571C70.4547 76.067 70.1826 76.6512 69.699 77.0823C69.2148 77.513 68.5583 77.7553 67.8741 77.7553C67.1898 77.7553 66.5333 77.513 66.0497 77.0823C65.5655 76.6512 65.2939 76.067 65.2939 75.4571V58.1102C65.2939 57.5008 65.5655 56.9162 66.0497 56.4855C66.5333 56.0543 67.1898 55.8125 67.8741 55.8125Z" fill="white"/>
</mask>
<g mask="url(#mask14_430_501)">
<path d="M65.2939 55.8125H70.4547V77.75H65.2939V55.8125Z" fill="#EA6012"/>
</g>
</g>
</g>
</g>
</g>
<mask id="mask15_430_501" style="mask-type:luminance" maskUnits="userSpaceOnUse" x="74" y="64" width="6" height="14">
<path d="M74.5371 64.2573H79.6979V77.7576H74.5371V64.2573Z" fill="white"/>
</mask>
<g mask="url(#mask15_430_501)">
<mask id="mask16_430_501" style="mask-type:luminance" maskUnits="userSpaceOnUse" x="74" y="64" width="6" height="14">
<path d="M77.1172 64.2573C77.8015 64.2573 78.458 64.4996 78.9416 64.9303C79.4258 65.3615 79.6979 65.9461 79.6979 66.5555V75.457C79.6979 76.0668 79.4258 76.651 78.9416 77.0822C78.458 77.5129 77.8015 77.7552 77.1172 77.7552C76.4329 77.7552 75.7765 77.5129 75.2928 77.0822C74.8086 76.651 74.5371 76.0668 74.5371 75.457V66.5555C74.5371 65.9461 74.8086 65.3615 75.2928 64.9303C75.7765 64.4996 76.4329 64.2573 77.1172 64.2573Z" fill="white"/>
</mask>
<g mask="url(#mask16_430_501)">
<mask id="mask17_430_501" style="mask-type:luminance" maskUnits="userSpaceOnUse" x="74" y="64" width="6" height="14">
<path d="M79.8061 64.2271H74.502V77.7764H79.8061V64.2271Z" fill="white"/>
</mask>
<g mask="url(#mask17_430_501)">
<mask id="mask18_430_501" style="mask-type:luminance" maskUnits="userSpaceOnUse" x="74" y="64" width="6" height="14">
<path d="M74.5371 64.2573H79.6979V77.7561H74.5371V64.2573Z" fill="white"/>
</mask>
<g mask="url(#mask18_430_501)">
<mask id="mask19_430_501" style="mask-type:luminance" maskUnits="userSpaceOnUse" x="74" y="64" width="6" height="14">
<path d="M77.1172 64.2573C77.8015 64.2573 78.458 64.4996 78.9416 64.9303C79.4258 65.3615 79.6979 65.9461 79.6979 66.5555V75.457C79.6979 76.0668 79.4258 76.651 78.9416 77.0822C78.458 77.5129 77.8015 77.7552 77.1172 77.7552C76.4329 77.7552 75.7765 77.5129 75.2928 77.0822C74.8086 76.651 74.5371 76.0668 74.5371 75.457V66.5555C74.5371 65.9461 74.8086 65.3615 75.2928 64.9303C75.7765 64.4996 76.4329 64.2573 77.1172 64.2573Z" fill="white"/>
</mask>
<g mask="url(#mask19_430_501)">
<path d="M74.5371 64.2573H79.6979V77.7576H74.5371V64.2573Z" fill="#EA6012"/>
</g>
</g>
</g>
</g>
</g>
<mask id="mask20_430_501" style="mask-type:luminance" maskUnits="userSpaceOnUse" x="90" y="45" width="7" height="33">
<path d="M90.9365 45.2842H96.0973V77.7605H90.9365V45.2842Z" fill="white"/>
</mask>
<g mask="url(#mask20_430_501)">
<mask id="mask21_430_501" style="mask-type:luminance" maskUnits="userSpaceOnUse" x="90" y="45" width="7" height="33">
<path d="M93.5172 45.2842C94.2015 45.2842 94.8579 45.5265 95.3416 45.9572C95.8258 46.3884 96.0973 46.9725 96.0973 47.5824V75.4569C96.0973 76.0668 95.8258 76.6509 95.3416 77.0821C94.8579 77.5128 94.2015 77.7551 93.5172 77.7551C92.8329 77.7551 92.1764 77.5128 91.6922 77.0821C91.2086 76.6509 90.9365 76.0668 90.9365 75.4569V47.5824C90.9365 46.9725 91.2086 46.3884 91.6922 45.9572C92.1764 45.5265 92.8329 45.2842 93.5172 45.2842Z" fill="white"/>
</mask>
<g mask="url(#mask21_430_501)">
<mask id="mask22_430_501" style="mask-type:luminance" maskUnits="userSpaceOnUse" x="90" y="45" width="7" height="33">
<path d="M96.1372 45.208H90.833V77.7761H96.1372V45.208Z" fill="white"/>
</mask>
<g mask="url(#mask22_430_501)">
<mask id="mask23_430_501" style="mask-type:luminance" maskUnits="userSpaceOnUse" x="90" y="45" width="7" height="33">
<path d="M90.9365 45.2842H96.0973V77.7561H90.9365V45.2842Z" fill="white"/>
</mask>
<g mask="url(#mask23_430_501)">
<mask id="mask24_430_501" style="mask-type:luminance" maskUnits="userSpaceOnUse" x="90" y="45" width="7" height="33">
<path d="M93.5172 45.2842C94.2015 45.2842 94.8579 45.5265 95.3416 45.9572C95.8258 46.3884 96.0973 46.9725 96.0973 47.5824V75.4569C96.0973 76.0668 95.8258 76.6509 95.3416 77.0821C94.8579 77.5128 94.2015 77.7551 93.5172 77.7551C92.8329 77.7551 92.1764 77.5128 91.6922 77.0821C91.2086 76.6509 90.9365 76.0668 90.9365 75.4569V47.5824C90.9365 46.9725 91.2086 46.3884 91.6922 45.9572C92.1764 45.5265 92.8329 45.2842 93.5172 45.2842Z" fill="white"/>
</mask>
<g mask="url(#mask24_430_501)">
<path d="M90.9365 45.2842H96.0973V77.7605H90.9365V45.2842Z" fill="#E25E13"/>
</g>
</g>
</g>
</g>
</g>
<mask id="mask25_430_501" style="mask-type:luminance" maskUnits="userSpaceOnUse" x="100" y="39" width="6" height="40">
<path d="M100.704 39.0244H105.865V78.2147H100.704V39.0244Z" fill="white"/>
</mask>
<g mask="url(#mask25_430_501)">
<mask id="mask26_430_501" style="mask-type:luminance" maskUnits="userSpaceOnUse" x="100" y="39" width="6" height="40">
<path d="M103.285 39.0244C103.969 39.0244 104.625 39.2662 105.109 39.6974C105.593 40.1281 105.865 40.7127 105.865 41.3221V75.9072C105.865 76.5166 105.593 77.1012 105.109 77.5319C104.625 77.9631 103.969 78.2054 103.285 78.2054C102.6 78.2054 101.944 77.9631 101.46 77.5319C100.976 77.1012 100.704 76.5166 100.704 75.9072V41.3221C100.704 40.7127 100.976 40.1281 101.46 39.6974C101.944 39.2662 102.6 39.0244 103.285 39.0244Z" fill="white"/>
</mask>
<g mask="url(#mask26_430_501)">
<mask id="mask27_430_501" style="mask-type:luminance" maskUnits="userSpaceOnUse" x="100" y="38" width="6" height="41">
<path d="M105.909 38.9922H100.604V78.2727H105.909V38.9922Z" fill="white"/>
</mask>
<g mask="url(#mask27_430_501)">
<mask id="mask28_430_501" style="mask-type:luminance" maskUnits="userSpaceOnUse" x="100" y="39" width="6" height="40">
<path d="M100.704 39.0244H105.865V78.2147H100.704V39.0244Z" fill="white"/>
</mask>
<g mask="url(#mask28_430_501)">
<mask id="mask29_430_501" style="mask-type:luminance" maskUnits="userSpaceOnUse" x="100" y="39" width="6" height="40">
<path d="M103.285 39.0244C103.969 39.0244 104.625 39.2662 105.109 39.6974C105.593 40.1281 105.865 40.7127 105.865 41.3221V75.9072C105.865 76.5166 105.593 77.1012 105.109 77.5319C104.625 77.9631 103.969 78.2054 103.285 78.2054C102.6 78.2054 101.944 77.9631 101.46 77.5319C100.976 77.1012 100.704 76.5166 100.704 75.9072V41.3221C100.704 40.7127 100.976 40.1281 101.46 39.6974C101.944 39.2662 102.6 39.0244 103.285 39.0244Z" fill="white"/>
</mask>
<g mask="url(#mask29_430_501)">
<path d="M100.704 39.0244H105.865V78.1967H100.704V39.0244Z" fill="#EA6012"/>
</g>
</g>
</g>
</g>
</g>
<mask id="mask30_430_501" style="mask-type:luminance" maskUnits="userSpaceOnUse" x="110" y="48" width="6" height="31">
<path d="M110.471 48.2793H115.631V78.2063H110.471V48.2793Z" fill="white"/>
</mask>
<g mask="url(#mask30_430_501)">
<mask id="mask31_430_501" style="mask-type:luminance" maskUnits="userSpaceOnUse" x="110" y="48" width="6" height="31">
<path d="M113.051 48.2793C113.736 48.2793 114.392 48.5216 114.876 48.9528C115.359 49.3835 115.631 49.9681 115.631 50.5775V75.9072C115.631 76.5166 115.359 77.1012 114.876 77.5319C114.392 77.9631 113.736 78.2054 113.051 78.2054C112.367 78.2054 111.711 77.9631 111.226 77.5319C110.743 77.1012 110.471 76.5166 110.471 75.9072V50.5775C110.471 49.9681 110.743 49.3835 111.226 48.9528C111.711 48.5216 112.367 48.2793 113.051 48.2793Z" fill="white"/>
</mask>
<g mask="url(#mask31_430_501)">
<mask id="mask32_430_501" style="mask-type:luminance" maskUnits="userSpaceOnUse" x="110" y="48" width="6" height="31">
<path d="M115.679 48.1914H110.375V78.2734H115.679V48.1914Z" fill="white"/>
</mask>
<g mask="url(#mask32_430_501)">
<mask id="mask33_430_501" style="mask-type:luminance" maskUnits="userSpaceOnUse" x="110" y="48" width="6" height="31">
<path d="M110.471 48.2793H115.631V78.2063H110.471V48.2793Z" fill="white"/>
</mask>
<g mask="url(#mask33_430_501)">
<mask id="mask34_430_501" style="mask-type:luminance" maskUnits="userSpaceOnUse" x="110" y="48" width="6" height="31">
<path d="M113.051 48.2793C113.736 48.2793 114.392 48.5216 114.876 48.9528C115.359 49.3835 115.631 49.9681 115.631 50.5775V75.9072C115.631 76.5166 115.359 77.1012 114.876 77.5319C114.392 77.9631 113.736 78.2054 113.051 78.2054C112.367 78.2054 111.711 77.9631 111.226 77.5319C110.743 77.1012 110.471 76.5166 110.471 75.9072V50.5775C110.471 49.9681 110.743 49.3835 111.226 48.9528C111.711 48.5216 112.367 48.2793 113.051 48.2793Z" fill="white"/>
</mask>
<g mask="url(#mask34_430_501)">
<path d="M110.471 48.2793H115.631V78.2063H110.471V48.2793Z" fill="#EA6012"/>
</g>
</g>
</g>
</g>
</g>
<mask id="mask35_430_501" style="mask-type:luminance" maskUnits="userSpaceOnUse" x="123" y="33" width="6" height="46">
<path d="M123.618 33.7031H128.779V78.2074H123.618V33.7031Z" fill="white"/>
</mask>
<g mask="url(#mask35_430_501)">
<mask id="mask36_430_501" style="mask-type:luminance" maskUnits="userSpaceOnUse" x="123" y="33" width="6" height="46">
<path d="M126.199 33.7031C126.883 33.7031 127.54 33.9454 128.023 34.3761C128.507 34.8073 128.779 35.3914 128.779 36.0008V75.9078C128.779 76.5172 128.507 77.1018 128.023 77.5325C127.54 77.9637 126.883 78.206 126.199 78.206C125.515 78.206 124.858 77.9637 124.374 77.5325C123.89 77.1018 123.618 76.5172 123.618 75.9078V36.0008C123.618 35.3914 123.89 34.8073 124.374 34.3761C124.858 33.9454 125.515 33.7031 126.199 33.7031Z" fill="white"/>
</mask>
<g mask="url(#mask36_430_501)">
<mask id="mask37_430_501" style="mask-type:luminance" maskUnits="userSpaceOnUse" x="123" y="33" width="6" height="46">
<path d="M128.799 33.6475H123.495V78.2732H128.799V33.6475Z" fill="white"/>
</mask>
<g mask="url(#mask37_430_501)">
<mask id="mask38_430_501" style="mask-type:luminance" maskUnits="userSpaceOnUse" x="123" y="33" width="6" height="46">
<path d="M123.618 33.7031H128.779V78.2074H123.618V33.7031Z" fill="white"/>
</mask>
<g mask="url(#mask38_430_501)">
<mask id="mask39_430_501" style="mask-type:luminance" maskUnits="userSpaceOnUse" x="123" y="33" width="6" height="46">
<path d="M126.199 33.7031C126.883 33.7031 127.54 33.9454 128.023 34.3761C128.507 34.8073 128.779 35.3914 128.779 36.0008V75.9078C128.779 76.5172 128.507 77.1018 128.023 77.5325C127.54 77.9637 126.883 78.206 126.199 78.206C125.515 78.206 124.858 77.9637 124.374 77.5325C123.89 77.1018 123.618 76.5172 123.618 75.9078V36.0008C123.618 35.3914 123.89 34.8073 124.374 34.3761C124.858 33.9454 125.515 33.7031 126.199 33.7031Z" fill="white"/>
</mask>
<g mask="url(#mask39_430_501)">
<path d="M123.618 33.7031H128.779V78.2074H123.618V33.7031Z" fill="#EA6012"/>
</g>
</g>
</g>
</g>
</g>
<mask id="mask40_430_501" style="mask-type:luminance" maskUnits="userSpaceOnUse" x="133" y="45" width="6" height="34">
<path d="M133.386 45.2842H138.547V78.2091H133.386V45.2842Z" fill="white"/>
</mask>
<g mask="url(#mask40_430_501)">
<mask id="mask41_430_501" style="mask-type:luminance" maskUnits="userSpaceOnUse" x="133" y="45" width="6" height="34">
<path d="M135.966 45.2842C136.651 45.2842 137.307 45.5265 137.791 45.9572C138.274 46.3884 138.547 46.9725 138.547 47.5824V75.9075C138.547 76.5169 138.274 77.1015 137.791 77.5322C137.307 77.9634 136.651 78.2057 135.966 78.2057C135.282 78.2057 134.626 77.9634 134.141 77.5322C133.658 77.1015 133.386 76.5169 133.386 75.9075V47.5824C133.386 46.9725 133.658 46.3884 134.141 45.9572C134.626 45.5265 135.282 45.2842 135.966 45.2842Z" fill="white"/>
</mask>
<g mask="url(#mask41_430_501)">
<mask id="mask42_430_501" style="mask-type:luminance" maskUnits="userSpaceOnUse" x="133" y="45" width="6" height="34">
<path d="M138.571 45.208H133.267V78.2733H138.571V45.208Z" fill="white"/>
</mask>
<g mask="url(#mask42_430_501)">
<mask id="mask43_430_501" style="mask-type:luminance" maskUnits="userSpaceOnUse" x="133" y="45" width="6" height="34">
<path d="M133.386 45.2842H138.547V78.2091H133.386V45.2842Z" fill="white"/>
</mask>
<g mask="url(#mask43_430_501)">
<mask id="mask44_430_501" style="mask-type:luminance" maskUnits="userSpaceOnUse" x="133" y="45" width="6" height="34">
<path d="M135.966 45.2842C136.651 45.2842 137.307 45.5265 137.791 45.9572C138.274 46.3884 138.547 46.9725 138.547 47.5824V75.9075C138.547 76.5169 138.274 77.1015 137.791 77.5322C137.307 77.9634 136.651 78.2057 135.966 78.2057C135.282 78.2057 134.626 77.9634 134.141 77.5322C133.658 77.1015 133.386 76.5169 133.386 75.9075V47.5824C133.386 46.9725 133.658 46.3884 134.141 45.9572C134.626 45.5265 135.282 45.2842 135.966 45.2842Z" fill="white"/>
</mask>
<g mask="url(#mask44_430_501)">
<path d="M133.386 45.2842H138.547V78.2091H133.386V45.2842Z" fill="#EA6012"/>
</g>
</g>
</g>
</g>
</g>
<mask id="mask45_430_501" style="mask-type:luminance" maskUnits="userSpaceOnUse" x="143" y="57" width="6" height="22">
<path d="M143.152 57.6504H148.313V78.206H143.152V57.6504Z" fill="white"/>
</mask>
<g mask="url(#mask45_430_501)">
<mask id="mask46_430_501" style="mask-type:luminance" maskUnits="userSpaceOnUse" x="143" y="57" width="6" height="22">
<path d="M145.732 57.6504C146.417 57.6504 147.073 57.8927 147.557 58.3234C148.041 58.7546 148.313 59.3392 148.313 59.9486V75.9073C148.313 76.5167 148.041 77.1013 147.557 77.532C147.073 77.9632 146.417 78.2055 145.732 78.2055C145.048 78.2055 144.392 77.9632 143.908 77.532C143.424 77.1013 143.152 76.5167 143.152 75.9073V59.9486C143.152 59.3392 143.424 58.7546 143.908 58.3234C144.392 57.8927 145.048 57.6504 145.732 57.6504Z" fill="white"/>
</mask>
<g mask="url(#mask46_430_501)">
<mask id="mask47_430_501" style="mask-type:luminance" maskUnits="userSpaceOnUse" x="143" y="57" width="6" height="22">
<path d="M148.341 57.6382H143.037V78.2729H148.341V57.6382Z" fill="white"/>
</mask>
<g mask="url(#mask47_430_501)">
<mask id="mask48_430_501" style="mask-type:luminance" maskUnits="userSpaceOnUse" x="143" y="57" width="6" height="22">
<path d="M143.152 57.6504H148.313V78.206H143.152V57.6504Z" fill="white"/>
</mask>
<g mask="url(#mask48_430_501)">
<mask id="mask49_430_501" style="mask-type:luminance" maskUnits="userSpaceOnUse" x="143" y="57" width="6" height="22">
<path d="M145.732 57.6504C146.417 57.6504 147.073 57.8927 147.557 58.3234C148.041 58.7546 148.313 59.3392 148.313 59.9486V75.9073C148.313 76.5167 148.041 77.1013 147.557 77.532C147.073 77.9632 146.417 78.2055 145.732 78.2055C145.048 78.2055 144.392 77.9632 143.908 77.532C143.424 77.1013 143.152 76.5167 143.152 75.9073V59.9486C143.152 59.3392 143.424 58.7546 143.908 58.3234C144.392 57.8927 145.048 57.6504 145.732 57.6504Z" fill="white"/>
</mask>
<g mask="url(#mask49_430_501)">
<path d="M143.152 57.6504H148.313V78.206H143.152V57.6504Z" fill="#EA6012"/>
</g>
</g>
</g>
</g>
</g>
<mask id="mask50_430_501" style="mask-type:luminance" maskUnits="userSpaceOnUse" x="50" y="102" width="7" height="15">
<path d="M50.46 102.607H56.0715V116.825H50.46V102.607Z" fill="white"/>
</mask>
<g mask="url(#mask50_430_501)">
<mask id="mask51_430_501" style="mask-type:luminance" maskUnits="userSpaceOnUse" x="50" y="102" width="7" height="15">
<path d="M53.2654 102.607C54.0095 102.607 54.7233 102.849 55.2498 103.28C55.7756 103.711 56.0715 104.295 56.0715 104.905V114.526C56.0715 115.135 55.7756 115.72 55.2498 116.15C54.7233 116.582 54.0095 116.823 53.2654 116.823C52.5214 116.823 51.8076 116.582 51.2817 116.15C50.7552 115.72 50.46 115.135 50.46 114.526V104.905C50.46 104.295 50.7552 103.711 51.2817 103.28C51.8076 102.849 52.5214 102.607 53.2654 102.607Z" fill="white"/>
</mask>
<g mask="url(#mask51_430_501)">
<mask id="mask52_430_501" style="mask-type:luminance" maskUnits="userSpaceOnUse" x="50" y="102" width="7" height="15">
<path d="M56.0965 102.569H50.3291V116.864H56.0965V102.569Z" fill="white"/>
</mask>
<g mask="url(#mask52_430_501)">
<mask id="mask53_430_501" style="mask-type:luminance" maskUnits="userSpaceOnUse" x="50" y="102" width="7" height="15">
<path d="M50.46 102.607H56.0715V116.824H50.46V102.607Z" fill="white"/>
</mask>
<g mask="url(#mask53_430_501)">
<mask id="mask54_430_501" style="mask-type:luminance" maskUnits="userSpaceOnUse" x="50" y="102" width="7" height="15">
<path d="M53.2654 102.607C54.0095 102.607 54.7233 102.849 55.2498 103.28C55.7756 103.711 56.0715 104.295 56.0715 104.905V114.526C56.0715 115.135 55.7756 115.72 55.2498 116.15C54.7233 116.582 54.0095 116.823 53.2654 116.823C52.5214 116.823 51.8076 116.582 51.2817 116.15C50.7552 115.72 50.46 115.135 50.46 114.526V104.905C50.46 104.295 50.7552 103.711 51.2817 103.28C51.8076 102.849 52.5214 102.607 53.2654 102.607Z" fill="white"/>
</mask>
<g mask="url(#mask54_430_501)">
<path d="M50.46 102.607H56.0715V116.825H50.46V102.607Z" fill="#E25E13"/>
</g>
</g>
</g>
</g>
</g>
<mask id="mask55_430_501" style="mask-type:luminance" maskUnits="userSpaceOnUse" x="61" y="102" width="6" height="24">
<path d="M61.1104 102.607H66.7219V125.047H61.1104V102.607Z" fill="white"/>
</mask>
<g mask="url(#mask55_430_501)">
<mask id="mask56_430_501" style="mask-type:luminance" maskUnits="userSpaceOnUse" x="61" y="102" width="6" height="24">
<path d="M63.9158 102.607C64.6599 102.607 65.3737 102.849 65.9001 103.28C66.426 103.711 66.7219 104.295 66.7219 104.905V122.74C66.7219 123.349 66.426 123.934 65.9001 124.365C65.3737 124.796 64.6599 125.038 63.9158 125.038C63.1718 125.038 62.4579 124.796 61.9321 124.365C61.4056 123.934 61.1104 123.349 61.1104 122.74V104.905C61.1104 104.295 61.4056 103.711 61.9321 103.28C62.4579 102.849 63.1718 102.607 63.9158 102.607Z" fill="white"/>
</mask>
<g mask="url(#mask56_430_501)">
<mask id="mask57_430_501" style="mask-type:luminance" maskUnits="userSpaceOnUse" x="61" y="102" width="6" height="24">
<path d="M66.8729 102.569H61.1055V125.068H66.8729V102.569Z" fill="white"/>
</mask>
<g mask="url(#mask57_430_501)">
<mask id="mask58_430_501" style="mask-type:luminance" maskUnits="userSpaceOnUse" x="61" y="102" width="6" height="24">
<path d="M61.1104 102.607H66.7219V125.047H61.1104V102.607Z" fill="white"/>
</mask>
<g mask="url(#mask58_430_501)">
<mask id="mask59_430_501" style="mask-type:luminance" maskUnits="userSpaceOnUse" x="61" y="102" width="6" height="24">
<path d="M63.9158 102.607C64.6599 102.607 65.3737 102.849 65.9001 103.28C66.426 103.711 66.7219 104.295 66.7219 104.905V122.74C66.7219 123.349 66.426 123.934 65.9001 124.365C65.3737 124.796 64.6599 125.038 63.9158 125.038C63.1718 125.038 62.4579 124.796 61.9321 124.365C61.4056 123.934 61.1104 123.349 61.1104 122.74V104.905C61.1104 104.295 61.4056 103.711 61.9321 103.28C62.4579 102.849 63.1718 102.607 63.9158 102.607Z" fill="white"/>
</mask>
<g mask="url(#mask59_430_501)">
<path d="M61.1104 102.607H66.7219V125.03H61.1104V102.607Z" fill="#E25E13"/>
</g>
</g>
</g>
</g>
</g>
<mask id="mask60_430_501" style="mask-type:luminance" maskUnits="userSpaceOnUse" x="71" y="102" width="7" height="16">
<path d="M71.7314 102.607H77.343V117.544H71.7314V102.607Z" fill="white"/>
</mask>
<g mask="url(#mask60_430_501)">
<mask id="mask61_430_501" style="mask-type:luminance" maskUnits="userSpaceOnUse" x="71" y="102" width="7" height="16">
<path d="M74.5369 102.607C75.281 102.607 75.9948 102.849 76.5206 103.28C77.0471 103.711 77.343 104.295 77.343 104.905V115.23C77.343 115.839 77.0471 116.424 76.5206 116.854C75.9948 117.286 75.281 117.528 74.5369 117.528C73.7929 117.528 73.079 117.286 72.5532 116.854C72.0267 116.424 71.7314 115.839 71.7314 115.23V104.905C71.7314 104.295 72.0267 103.711 72.5532 103.28C73.079 102.849 73.7929 102.607 74.5369 102.607Z" fill="white"/>
</mask>
<g mask="url(#mask61_430_501)">
<mask id="mask62_430_501" style="mask-type:luminance" maskUnits="userSpaceOnUse" x="71" y="102" width="7" height="16">
<path d="M77.3461 102.569H71.7305V117.61H77.3461V102.569Z" fill="white"/>
</mask>
<g mask="url(#mask62_430_501)">
<mask id="mask63_430_501" style="mask-type:luminance" maskUnits="userSpaceOnUse" x="71" y="102" width="7" height="16">
<path d="M71.7324 102.607H77.3439V117.54H71.7324V102.607Z" fill="white"/>
</mask>
<g mask="url(#mask63_430_501)">
<mask id="mask64_430_501" style="mask-type:luminance" maskUnits="userSpaceOnUse" x="71" y="102" width="7" height="16">
<path d="M74.5379 102.607C75.2819 102.607 75.9957 102.849 76.5216 103.28C77.0481 103.711 77.3439 104.295 77.3439 104.905V115.23C77.3439 115.839 77.0481 116.424 76.5216 116.854C75.9957 117.286 75.2819 117.528 74.5379 117.528C73.7938 117.528 73.08 117.286 72.5541 116.854C72.0277 116.424 71.7324 115.839 71.7324 115.23V104.905C71.7324 104.295 72.0277 103.711 72.5541 103.28C73.08 102.849 73.7938 102.607 74.5379 102.607Z" fill="white"/>
</mask>
<g mask="url(#mask64_430_501)">
<path d="M71.7324 102.607H77.3439V117.526H71.7324V102.607Z" fill="#E25E13"/>
</g>
</g>
</g>
</g>
</g>
<mask id="mask65_430_501" style="mask-type:luminance" maskUnits="userSpaceOnUse" x="88" y="102" width="7" height="30">
<path d="M88.9932 102.607H94.6047V131.851H88.9932V102.607Z" fill="white"/>
</mask>
<g mask="url(#mask65_430_501)">
<mask id="mask66_430_501" style="mask-type:luminance" maskUnits="userSpaceOnUse" x="88" y="102" width="7" height="30">
<path d="M91.7992 102.607C92.5433 102.607 93.2571 102.849 93.783 103.28C94.3094 103.711 94.6047 104.295 94.6047 104.905V129.546C94.6047 130.156 94.3094 130.74 93.783 131.171C93.2571 131.602 92.5433 131.844 91.7992 131.844C91.0552 131.844 90.3413 131.602 89.8149 131.171C89.289 130.74 88.9932 130.156 88.9932 129.546V104.905C88.9932 104.295 89.289 103.711 89.8149 103.28C90.3413 102.849 91.0552 102.607 91.7992 102.607Z" fill="white"/>
</mask>
<g mask="url(#mask66_430_501)">
<mask id="mask67_430_501" style="mask-type:luminance" maskUnits="userSpaceOnUse" x="88" y="102" width="7" height="30">
<path d="M94.6483 102.569H88.8809V131.905H94.6483V102.569Z" fill="white"/>
</mask>
<g mask="url(#mask67_430_501)">
<mask id="mask68_430_501" style="mask-type:luminance" maskUnits="userSpaceOnUse" x="88" y="102" width="7" height="30">
<path d="M88.9922 102.607H94.6037V131.851H88.9922V102.607Z" fill="white"/>
</mask>
<g mask="url(#mask68_430_501)">
<mask id="mask69_430_501" style="mask-type:luminance" maskUnits="userSpaceOnUse" x="88" y="102" width="7" height="30">
<path d="M91.7982 102.607C92.5423 102.607 93.2561 102.849 93.782 103.28C94.3084 103.711 94.6037 104.295 94.6037 104.905V129.546C94.6037 130.156 94.3084 130.74 93.782 131.171C93.2561 131.602 92.5423 131.844 91.7982 131.844C91.0542 131.844 90.3404 131.602 89.8139 131.171C89.288 130.74 88.9922 130.156 88.9922 129.546V104.905C88.9922 104.295 89.288 103.711 89.8139 103.28C90.3404 102.849 91.0542 102.607 91.7982 102.607Z" fill="white"/>
</mask>
<g mask="url(#mask69_430_501)">
<path d="M88.9922 102.607H94.6037V131.851H88.9922V102.607Z" fill="#E25E13"/>
</g>
</g>
</g>
</g>
</g>
<mask id="mask70_430_501" style="mask-type:luminance" maskUnits="userSpaceOnUse" x="99" y="102" width="7" height="38">
<path d="M99.6143 102.909H105.226V139.317H99.6143V102.909Z" fill="white"/>
</mask>
<g mask="url(#mask70_430_501)">
<mask id="mask71_430_501" style="mask-type:luminance" maskUnits="userSpaceOnUse" x="99" y="102" width="7" height="38">
<path d="M102.42 102.909C103.164 102.909 103.878 103.151 104.404 103.582C104.93 104.013 105.226 104.597 105.226 105.207V137.006C105.226 137.616 104.93 138.2 104.404 138.631C103.878 139.062 103.164 139.304 102.42 139.304C101.676 139.304 100.962 139.062 100.436 138.631C99.9101 138.2 99.6143 137.616 99.6143 137.006V105.207C99.6143 104.597 99.9101 104.013 100.436 103.582C100.962 103.151 101.676 102.909 102.42 102.909Z" fill="white"/>
</mask>
<g mask="url(#mask71_430_501)">
<mask id="mask72_430_501" style="mask-type:luminance" maskUnits="userSpaceOnUse" x="99" y="102" width="7" height="38">
<path d="M105.272 102.817H99.5049V139.363H105.272V102.817Z" fill="white"/>
</mask>
<g mask="url(#mask72_430_501)">
<mask id="mask73_430_501" style="mask-type:luminance" maskUnits="userSpaceOnUse" x="99" y="102" width="7" height="38">
<path d="M99.6143 102.909H105.226V139.317H99.6143V102.909Z" fill="white"/>
</mask>
<g mask="url(#mask73_430_501)">
<mask id="mask74_430_501" style="mask-type:luminance" maskUnits="userSpaceOnUse" x="99" y="102" width="7" height="38">
<path d="M102.421 102.909C103.165 102.909 103.879 103.151 104.405 103.582C104.931 104.013 105.227 104.597 105.227 105.207V137.006C105.227 137.616 104.931 138.2 104.405 138.631C103.879 139.062 103.165 139.304 102.421 139.304C101.677 139.304 100.963 139.062 100.437 138.631C99.9111 138.2 99.6152 137.616 99.6152 137.006V105.207C99.6152 104.597 99.9111 104.013 100.437 103.582C100.963 103.151 101.677 102.909 102.421 102.909Z" fill="white"/>
</mask>
<g mask="url(#mask74_430_501)">
<path d="M99.6152 102.909H105.227V139.299H99.6152V102.909Z" fill="#E25E13"/>
</g>
</g>
</g>
</g>
</g>
<mask id="mask75_430_501" style="mask-type:luminance" maskUnits="userSpaceOnUse" x="110" y="102" width="6" height="29">
<path d="M110.233 102.909H115.845V130.287H110.233V102.909Z" fill="white"/>
</mask>
<g mask="url(#mask75_430_501)">
<mask id="mask76_430_501" style="mask-type:luminance" maskUnits="userSpaceOnUse" x="110" y="102" width="6" height="29">
<path d="M113.039 102.909C113.784 102.909 114.497 103.151 115.023 103.582C115.549 104.013 115.845 104.597 115.845 105.207V127.971C115.845 128.58 115.549 129.164 115.023 129.596C114.497 130.026 113.784 130.269 113.039 130.269C112.295 130.269 111.582 130.026 111.055 129.596C110.529 129.164 110.233 128.58 110.233 127.971V105.207C110.233 104.597 110.529 104.013 111.055 103.582C111.582 103.151 112.295 102.909 113.039 102.909Z" fill="white"/>
</mask>
<g mask="url(#mask76_430_501)">
<mask id="mask77_430_501" style="mask-type:luminance" maskUnits="userSpaceOnUse" x="110" y="102" width="6" height="29">
<path d="M115.895 102.817H110.128V130.288H115.895V102.817Z" fill="white"/>
</mask>
<g mask="url(#mask77_430_501)">
<mask id="mask78_430_501" style="mask-type:luminance" maskUnits="userSpaceOnUse" x="110" y="102" width="6" height="29">
<path d="M110.232 102.909H115.844V130.278H110.232V102.909Z" fill="white"/>
</mask>
<g mask="url(#mask78_430_501)">
<mask id="mask79_430_501" style="mask-type:luminance" maskUnits="userSpaceOnUse" x="110" y="102" width="6" height="29">
<path d="M113.038 102.909C113.783 102.909 114.496 103.151 115.022 103.582C115.548 104.013 115.844 104.597 115.844 105.207V127.971C115.844 128.58 115.548 129.164 115.022 129.596C114.496 130.026 113.783 130.269 113.038 130.269C112.294 130.269 111.581 130.026 111.054 129.596C110.528 129.164 110.232 128.58 110.232 127.971V105.207C110.232 104.597 110.528 104.013 111.054 103.582C111.581 103.151 112.294 102.909 113.038 102.909Z" fill="white"/>
</mask>
<g mask="url(#mask79_430_501)">
<path d="M110.232 102.909H115.844V130.269H110.232V102.909Z" fill="#E25E13"/>
</g>
</g>
</g>
</g>
</g>
<mask id="mask80_430_501" style="mask-type:luminance" maskUnits="userSpaceOnUse" x="124" y="102" width="7" height="42">
<path d="M124.529 102.909H130.141V143.769H124.529V102.909Z" fill="white"/>
</mask>
<g mask="url(#mask80_430_501)">
<mask id="mask81_430_501" style="mask-type:luminance" maskUnits="userSpaceOnUse" x="124" y="102" width="7" height="42">
<path d="M127.335 102.909C128.079 102.909 128.793 103.151 129.319 103.582C129.846 104.013 130.141 104.597 130.141 105.207V141.466C130.141 142.075 129.846 142.66 129.319 143.09C128.793 143.521 128.079 143.763 127.335 143.763C126.591 143.763 125.877 143.521 125.351 143.09C124.825 142.66 124.529 142.075 124.529 141.466V105.207C124.529 104.597 124.825 104.013 125.351 103.582C125.877 103.151 126.591 102.909 127.335 102.909Z" fill="white"/>
</mask>
<g mask="url(#mask81_430_501)">
<mask id="mask82_430_501" style="mask-type:luminance" maskUnits="userSpaceOnUse" x="124" y="102" width="7" height="42">
<path d="M130.164 102.817H124.396V143.838H130.164V102.817Z" fill="white"/>
</mask>
<g mask="url(#mask82_430_501)">
<mask id="mask83_430_501" style="mask-type:luminance" maskUnits="userSpaceOnUse" x="124" y="102" width="7" height="42">
<path d="M124.53 102.909H130.142V143.769H124.53V102.909Z" fill="white"/>
</mask>
<g mask="url(#mask83_430_501)">
<mask id="mask84_430_501" style="mask-type:luminance" maskUnits="userSpaceOnUse" x="124" y="102" width="7" height="42">
<path d="M127.336 102.909C128.08 102.909 128.794 103.151 129.32 103.582C129.847 104.013 130.142 104.597 130.142 105.207V141.466C130.142 142.075 129.847 142.66 129.32 143.09C128.794 143.521 128.08 143.763 127.336 143.763C126.592 143.763 125.878 143.521 125.352 143.09C124.826 142.66 124.53 142.075 124.53 141.466V105.207C124.53 104.597 124.826 104.013 125.352 103.582C125.878 103.151 126.592 102.909 127.336 102.909Z" fill="white"/>
</mask>
<g mask="url(#mask84_430_501)">
<path d="M124.53 102.909H130.142V143.769H124.53V102.909Z" fill="#E25E13"/>
</g>
</g>
</g>
</g>
</g>
<mask id="mask85_430_501" style="mask-type:luminance" maskUnits="userSpaceOnUse" x="135" y="102" width="6" height="30">
<path d="M135.149 102.909H140.761V131.848H135.149V102.909Z" fill="white"/>
</mask>
<g mask="url(#mask85_430_501)">
<mask id="mask86_430_501" style="mask-type:luminance" maskUnits="userSpaceOnUse" x="135" y="102" width="6" height="30">
<path d="M137.955 102.909C138.7 102.909 139.413 103.151 139.939 103.582C140.465 104.013 140.761 104.597 140.761 105.207V129.546C140.761 130.155 140.465 130.74 139.939 131.171C139.413 131.602 138.7 131.844 137.955 131.844C137.211 131.844 136.498 131.602 135.971 131.171C135.445 130.74 135.149 130.155 135.149 129.546V105.207C135.149 104.597 135.445 104.013 135.971 103.582C136.498 103.151 137.211 102.909 137.955 102.909Z" fill="white"/>
</mask>
<g mask="url(#mask86_430_501)">
<mask id="mask87_430_501" style="mask-type:luminance" maskUnits="userSpaceOnUse" x="135" y="102" width="6" height="30">
<path d="M140.787 102.817H135.02V131.904H140.787V102.817Z" fill="white"/>
</mask>
<g mask="url(#mask87_430_501)">
<mask id="mask88_430_501" style="mask-type:luminance" maskUnits="userSpaceOnUse" x="135" y="102" width="6" height="30">
<path d="M135.149 102.909H140.761V131.848H135.149V102.909Z" fill="white"/>
</mask>
<g mask="url(#mask88_430_501)">
<mask id="mask89_430_501" style="mask-type:luminance" maskUnits="userSpaceOnUse" x="135" y="102" width="6" height="30">
<path d="M137.954 102.909C138.699 102.909 139.412 103.151 139.938 103.582C140.464 104.013 140.76 104.597 140.76 105.207V129.546C140.76 130.155 140.464 130.74 139.938 131.171C139.412 131.602 138.699 131.844 137.954 131.844C137.21 131.844 136.497 131.602 135.97 131.171C135.444 130.74 135.148 130.155 135.148 129.546V105.207C135.148 104.597 135.444 104.013 135.97 103.582C136.497 103.151 137.21 102.909 137.954 102.909Z" fill="white"/>
</mask>
<g mask="url(#mask89_430_501)">
<path d="M135.148 102.909H140.76V131.848H135.148V102.909Z" fill="#E25E13"/>
</g>
</g>
</g>
</g>
</g>
<mask id="mask90_430_501" style="mask-type:luminance" maskUnits="userSpaceOnUse" x="145" y="103" width="7" height="21">
<path d="M145.769 103.06H151.38V123.346H145.769V103.06Z" fill="white"/>
</mask>
<g mask="url(#mask90_430_501)">
<mask id="mask91_430_501" style="mask-type:luminance" maskUnits="userSpaceOnUse" x="145" y="103" width="7" height="21">
<path d="M148.576 103.06C149.321 103.06 150.034 103.302 150.56 103.733C151.086 104.164 151.382 104.748 151.382 105.358V121.038C151.382 121.648 151.086 122.232 150.56 122.663C150.034 123.094 149.321 123.336 148.576 123.336C147.832 123.336 147.119 123.094 146.592 122.663C146.066 122.232 145.771 121.648 145.771 121.038V105.358C145.771 104.748 146.066 104.164 146.592 103.733C147.119 103.302 147.832 103.06 148.576 103.06Z" fill="white"/>
</mask>
<g mask="url(#mask91_430_501)">
<mask id="mask92_430_501" style="mask-type:luminance" maskUnits="userSpaceOnUse" x="145" y="102" width="7" height="22">
<path d="M151.411 102.941H145.644V123.451H151.411V102.941Z" fill="white"/>
</mask>
<g mask="url(#mask92_430_501)">
<mask id="mask93_430_501" style="mask-type:luminance" maskUnits="userSpaceOnUse" x="145" y="103" width="7" height="21">
<path d="M145.77 103.06H151.381V123.346H145.77V103.06Z" fill="white"/>
</mask>
<g mask="url(#mask93_430_501)">
<mask id="mask94_430_501" style="mask-type:luminance" maskUnits="userSpaceOnUse" x="145" y="103" width="7" height="21">
<path d="M148.576 103.06C149.321 103.06 150.034 103.302 150.56 103.733C151.086 104.164 151.382 104.748 151.382 105.358V121.038C151.382 121.648 151.086 122.232 150.56 122.663C150.034 123.094 149.321 123.336 148.576 123.336C147.832 123.336 147.119 123.094 146.592 122.663C146.066 122.232 145.771 121.648 145.771 121.038V105.358C145.771 104.748 146.066 104.164 146.592 103.733C147.119 103.302 147.832 103.06 148.576 103.06Z" fill="white"/>
</mask>
<g mask="url(#mask94_430_501)">
<path d="M145.771 103.06H151.382V123.328H145.771V103.06Z" fill="#E25E13"/>
</g>
</g>
</g>
</g>
</g>
</svg>
